<?xml version="1.0" standalone="no"?>
<!DOCTYPE svg PUBLIC "-//W3C//DTD SVG 20010904//EN"
 "http://www.w3.org/TR/2001/REC-SVG-20010904/DTD/svg10.dtd">
<svg version="1.0" xmlns="http://www.w3.org/2000/svg"
 width="550.000000pt" height="550.000000pt" viewBox="0 0 550.000000 550.000000"
 preserveAspectRatio="xMidYMid meet">

<g transform="translate(0.000000,550.000000) scale(0.100000,-0.100000)"
fill="#000000" stroke="none">
<path d="M1536 4975 c-9 -26 -7 -32 5 -12 6 10 9 21 6 23 -2 3 -7 -2 -11 -11z"/>
<path d="M1943 4983 c9 -2 23 -2 30 0 6 3 -1 5 -18 5 -16 0 -22 -2 -12 -5z"/>
<path d="M1818 4973 c12 -2 32 -2 45 0 12 2 2 4 -23 4 -25 0 -35 -2 -22 -4z"/>
<path d="M1725 4960 l-20 -9 20 1 c11 0 31 4 45 8 l25 8 -25 0 c-14 0 -34 -3
-45 -8z"/>
<path d="M1965 4950 c-3 -5 3 -10 14 -10 12 0 21 5 21 10 0 6 -6 10 -14 10 -8
0 -18 -4 -21 -10z"/>
<path d="M1678 4943 c7 -3 16 -2 19 1 4 3 -2 6 -13 5 -11 0 -14 -3 -6 -6z"/>
<path d="M1913 4943 c9 -2 23 -2 30 0 6 3 -1 5 -18 5 -16 0 -22 -2 -12 -5z"/>
<path d="M1516 4918 c-3 -13 -6 -33 -6 -45 l0 -21 38 19 c20 10 60 25 87 33
47 14 48 15 10 10 l-40 -5 30 16 c26 13 26 14 5 9 -14 -4 -47 -18 -73 -31
l-49 -24 7 30 c8 36 0 42 -9 9z"/>
<path d="M2158 4933 c7 -3 16 -2 19 1 4 3 -2 6 -13 5 -11 0 -14 -3 -6 -6z"/>
<path d="M1703 4916 c16 -12 15 -14 -13 -26 -17 -7 -29 -15 -26 -17 2 -3 26 5
51 16 26 12 56 21 66 21 11 0 19 5 19 10 0 6 -26 10 -57 10 -51 -1 -56 -2 -40
-14z"/>
<path d="M2198 4923 c7 -3 16 -2 19 1 4 3 -2 6 -13 5 -11 0 -14 -3 -6 -6z"/>
<path d="M1958 4904 c-19 -10 -18 -11 11 -17 22 -5 30 -11 26 -19 -4 -7 0 -6
7 4 14 17 68 14 68 -3 0 -5 -12 -7 -27 -4 -28 5 -28 5 2 -8 114 -48 136 -60
123 -69 -9 -7 -4 -8 15 -4 15 4 27 3 27 -1 0 -5 24 -19 53 -33 28 -13 71 -37
95 -53 23 -15 42 -24 42 -20 0 17 -210 134 -287 161 -40 14 -45 34 -5 23 39
-12 198 -79 256 -108 26 -13 45 -20 41 -14 -11 19 -257 126 -340 148 -29 8
-29 8 15 13 41 6 39 6 -28 11 -43 2 -82 -1 -94 -7z"/>
<path d="M2139 4897 c5 -5 21 -7 37 -5 27 3 26 4 -8 9 -22 3 -34 1 -29 -4z"/>
<path d="M2230 4880 c8 -5 22 -9 30 -9 10 0 8 3 -5 9 -27 12 -43 12 -25 0z"/>
<path d="M1731 4859 c-13 -5 -21 -12 -18 -15 3 -3 18 1 34 10 31 17 21 20 -16
5z"/>
<path d="M2288 4863 c7 -3 16 -2 19 1 4 3 -2 6 -13 5 -11 0 -14 -3 -6 -6z"/>
<path d="M1465 4830 c4 -6 -15 -10 -48 -10 -30 0 -70 -7 -88 -16 -22 -10 -25
-13 -9 -9 53 14 144 15 152 3 5 -8 8 -3 8 15 0 15 -5 27 -11 27 -5 0 -7 -4 -4
-10z"/>
<path d="M1655 4820 c-22 -10 -48 -26 -57 -36 -16 -19 -16 -19 20 -16 34 3
112 -12 167 -33 13 -5 17 -5 10 2 -15 15 -109 43 -147 43 l-33 1 25 14 c14 8
34 15 45 15 11 0 26 4 33 9 28 17 -23 18 -63 1z"/>
<path d="M1765 4822 c34 -15 105 -23 105 -12 0 5 -17 10 -37 10 -21 0 -49 3
-63 5 -21 5 -22 4 -5 -3z"/>
<path d="M1523 4813 c9 -2 25 -2 35 0 9 3 1 5 -18 5 -19 0 -27 -2 -17 -5z"/>
<path d="M2013 4813 c9 -2 23 -2 30 0 6 3 -1 5 -18 5 -16 0 -22 -2 -12 -5z"/>
<path d="M1880 4782 c-11 -12 -10 -13 9 -7 29 9 102 -17 181 -64 36 -22 67
-37 70 -35 2 3 -2 9 -9 13 -7 5 -10 14 -7 20 5 7 -1 10 -16 9 -13 -1 -44 10
-69 25 -26 15 -69 33 -96 40 -42 11 -51 11 -63 -1z"/>
<path d="M2118 4793 c6 -2 18 -2 25 0 6 3 1 5 -13 5 -14 0 -19 -2 -12 -5z"/>
<path d="M1205 4750 c-39 -26 -25 -26 17 0 18 11 29 20 23 20 -5 0 -23 -9 -40
-20z"/>
<path d="M1500 4744 c0 -5 7 -19 15 -30 8 -10 15 -14 15 -8 0 5 -7 19 -15 30
-8 10 -15 14 -15 8z"/>
<path d="M1555 4739 c-4 -6 -5 -12 -2 -15 2 -3 7 2 10 11 7 17 1 20 -8 4z"/>
<path d="M1905 4686 c132 -61 158 -74 232 -118 35 -21 63 -34 63 -30 -1 19
-303 173 -366 187 -16 4 16 -14 71 -39z"/>
<path d="M2435 4714 c38 -30 61 -36 32 -10 -15 14 -33 26 -40 26 -7 0 -3 -8 8
-16z"/>
<path d="M1478 4713 c7 -3 16 -2 19 1 4 3 -2 6 -13 5 -11 0 -14 -3 -6 -6z"/>
<path d="M2190 4700 c0 -5 7 -10 15 -10 8 0 39 -11 70 -24 30 -14 55 -22 55
-18 0 7 -15 14 -94 46 -45 19 -46 19 -46 6z"/>
<path d="M2500 4674 c0 -3 14 -22 30 -41 17 -18 30 -31 30 -27 0 3 -13 22 -30
41 -16 18 -30 31 -30 27z"/>
<path d="M2150 4665 c0 -2 24 -22 54 -44 133 -99 264 -250 359 -416 26 -46 28
-47 22 -17 -4 20 -2 38 5 47 10 12 10 15 0 15 -9 0 -11 12 -7 39 4 32 2 38
-12 36 -9 -2 -17 -4 -17 -4 -1 -1 2 -19 6 -41 4 -22 5 -40 1 -40 -3 0 -26 32
-50 72 -37 59 -110 146 -192 227 -31 31 -158 131 -166 131 -2 0 -3 -2 -3 -5z"/>
<path d="M2368 4621 c18 -12 37 -21 42 -21 6 0 10 -4 10 -10 0 -5 5 -10 10
-10 23 0 7 17 -32 36 -61 27 -67 28 -30 5z"/>
<path d="M2471 4603 c20 -21 46 -53 59 -71 12 -18 24 -31 27 -28 9 9 -95 136
-111 136 -5 0 6 -17 25 -37z"/>
<path d="M2314 4591 c17 -11 34 -17 39 -14 5 3 -5 12 -23 19 -45 19 -50 17
-16 -5z"/>
<path d="M2396 4552 c-3 -5 9 -22 27 -38 l32 -29 -28 31 c-15 17 -24 33 -20
37 3 4 4 7 0 7 -3 0 -8 -4 -11 -8z"/>
<path d="M1917 4495 c24 -25 46 -45 50 -45 4 0 -13 20 -37 45 -24 25 -47 45
-51 45 -3 0 14 -20 38 -45z"/>
<path d="M2247 4499 c12 -12 25 -20 28 -17 3 3 -7 13 -22 23 l-28 17 22 -23z"/>
<path d="M2464 4478 c-4 -7 -3 -10 1 -5 5 4 19 -14 32 -40 12 -27 23 -44 23
-39 0 5 7 3 15 -4 9 -7 -1 11 -21 41 -44 66 -40 63 -50 47z"/>
<path d="M2160 4446 c0 -2 33 -37 73 -77 41 -41 90 -99 109 -130 68 -107 137
-252 145 -308 4 -20 9 -38 12 -41 8 -6 33 -102 38 -144 1 -16 8 -46 13 -67 8
-29 15 -37 28 -33 15 5 15 4 -2 -10 -23 -19 -26 -79 -10 -190 6 -45 12 -65 12
-46 0 19 -3 58 -7 86 -8 55 -5 77 10 68 5 -3 9 -25 9 -50 0 -28 4 -43 10 -39
6 3 10 1 10 -4 0 -6 -4 -11 -10 -11 -5 0 -9 -12 -9 -27 1 -21 2 -23 6 -8 10
40 22 37 75 -20 42 -45 132 -125 223 -198 64 -52 206 -146 303 -202 228 -133
476 -254 490 -240 3 2 -12 12 -34 21 -46 19 -275 133 -289 144 -12 9 -72 44
-130 74 -22 11 -87 53 -145 93 -58 40 -130 89 -160 109 -68 46 -200 151 -221
177 -9 11 -14 30 -11 43 3 18 0 24 -14 24 -15 0 -16 -2 -5 -9 7 -5 12 -14 9
-21 -3 -9 -9 -8 -21 4 -9 10 -15 22 -12 27 4 5 0 9 -7 9 -9 0 -9 3 2 10 23 15
273 3 380 -19 142 -29 363 -101 405 -132 6 -4 33 -19 60 -35 28 -15 66 -36 85
-47 19 -10 42 -25 51 -33 8 -8 19 -14 23 -14 5 0 23 -12 41 -27 17 -16 52 -44
76 -63 110 -88 111 -94 4 -42 -55 27 -149 68 -210 93 -60 24 -112 46 -115 49
-3 4 -21 12 -40 19 -19 7 -63 26 -98 42 -77 35 -294 109 -319 108 -17 0 44
-24 194 -74 67 -22 137 -54 121 -55 -4 0 -50 14 -103 31 -53 17 -98 29 -101
26 -3 -2 80 -32 183 -66 189 -63 352 -135 517 -231 49 -28 95 -49 103 -46 8 3
11 1 8 -4 -4 -6 9 -18 27 -28 55 -29 142 -122 216 -230 26 -39 114 -211 132
-257 6 -15 13 -25 16 -22 3 3 -4 23 -15 46 -23 44 -26 55 -12 47 9 -6 91 -169
91 -181 0 -4 6 -21 14 -38 8 -18 21 -50 29 -72 28 -70 18 -18 -13 71 -28 80
-68 162 -139 282 -31 52 -52 84 -144 209 -32 43 -42 63 -30 59 10 -3 5 4 -12
16 -16 12 -61 52 -100 88 -126 119 -159 147 -245 211 -47 34 -87 65 -90 69 -8
9 -83 53 -210 121 -8 5 -49 22 -90 38 -173 69 -379 111 -545 111 -66 0 -86 3
-75 11 13 9 13 10 0 5 -83 -28 -90 -29 -105 -16 -25 21 -18 40 15 40 17 0 30
5 31 13 4 106 22 135 101 169 158 68 321 113 418 117 25 1 72 6 105 11 69 11
266 11 310 0 17 -4 -13 -5 -66 -2 -100 5 -269 -5 -269 -16 0 -4 84 -7 187 -7
104 0 211 -3 238 -7 261 -35 548 -146 740 -286 91 -67 106 -81 198 -185 152
-171 269 -487 304 -822 6 -55 8 -62 11 -32 8 89 -39 333 -97 500 -35 102 -134
296 -164 322 -7 6 -42 44 -79 86 -38 43 -108 107 -157 143 -99 74 -287 171
-398 207 -40 12 -71 25 -69 27 8 8 175 -47 271 -88 11 -5 30 -12 43 -15 12 -4
58 -26 102 -51 44 -24 83 -44 86 -44 3 0 26 -14 50 -31 25 -17 47 -29 50 -27
13 13 -249 161 -332 188 -21 7 -64 23 -94 35 -76 32 -305 89 -420 106 -112 17
-497 17 -580 1 -193 -37 -297 -69 -403 -123 -53 -26 -58 -27 -65 -12 -5 14 -8
12 -12 -12 l-7 -30 -12 42 c-6 23 -19 50 -28 59 -24 24 -26 68 -3 89 18 16 19
15 30 -23 9 -29 9 -44 1 -61 -7 -12 -8 -21 -2 -21 18 0 25 24 26 85 1 33 -1
49 -4 36 -6 -22 -12 -15 -47 55 -22 44 -66 114 -97 156 -84 113 -367 402 -367
374z m246 -263 c-7 -7 -26 7 -26 19 0 6 6 6 15 -2 9 -7 13 -15 11 -17z m79
-117 c-3 -12 -2 -15 1 -8 5 10 9 10 20 1 17 -14 19 -33 3 -23 -8 4 -9 -1 -4
-17 4 -14 -5 -6 -20 19 -14 23 -23 47 -20 52 3 6 -4 10 -17 10 -17 0 -19 3 -9
9 9 6 10 11 2 15 -6 4 -16 17 -21 29 -6 12 7 2 30 -22 29 -31 39 -50 35 -65z
m99 -102 c3 -8 2 -12 -4 -9 -6 3 -10 10 -10 16 0 14 7 11 14 -7z m-4 -74 c6
-23 8 -51 4 -63 -7 -19 -9 -16 -15 18 -16 83 -8 115 11 45z m37 13 c-4 -3 -2
-12 4 -19 12 -15 3 -37 -12 -29 -13 9 -11 55 3 55 6 0 8 -3 5 -7z m-2 -172 c3
-5 1 -12 -5 -16 -5 -3 -10 1 -10 9 0 18 6 21 15 7z m15 -68 c0 -32 -5 -28 -14
10 -4 19 -3 26 4 22 5 -3 10 -18 10 -32z m10 -113 c0 -5 -10 -10 -22 -10 -19
0 -20 2 -8 10 19 13 30 13 30 0z m1225 -570 c7 -11 -84 36 -100 52 -5 6 13 -1
42 -16 28 -14 54 -30 58 -36z"/>
<path d="M990 4433 c0 -6 -16 -31 -36 -57 -19 -25 -32 -51 -29 -56 3 -6 0 -10
-7 -10 -17 0 -91 -142 -118 -225 -30 -93 -22 -100 11 -10 34 91 100 227 107
220 3 -2 0 -17 -7 -32 -66 -161 -48 -514 34 -672 13 -25 24 -42 25 -38 0 4 -7
21 -15 37 -8 15 -26 73 -41 127 -22 85 -25 118 -25 253 -1 177 15 255 76 386
19 42 33 79 30 82 -3 3 -5 1 -5 -5z"/>
<path d="M2012 4390 c7 -11 17 -20 22 -20 5 0 1 9 -9 20 -10 11 -20 20 -22 20
-2 0 2 -9 9 -20z"/>
<path d="M2365 4400 c3 -5 8 -10 11 -10 2 0 4 5 4 10 0 6 -5 10 -11 10 -5 0
-7 -4 -4 -10z"/>
<path d="M2520 4360 c6 -11 12 -20 14 -20 2 0 2 9 -1 20 -3 11 -9 20 -15 20
-5 0 -4 -9 2 -20z"/>
<path d="M2362 4336 c13 -20 27 -36 31 -36 9 0 -28 56 -44 66 -6 3 0 -10 13
-30z"/>
<path d="M2550 4361 c0 -5 5 -13 10 -16 6 -3 10 -2 10 4 0 5 -4 13 -10 16 -5
3 -10 2 -10 -4z"/>
<path d="M2040 4350 c0 -5 3 -10 8 -10 22 0 200 -267 275 -412 102 -199 136
-333 144 -568 6 -188 11 -177 -79 -205 -48 -15 -58 -22 -57 -39 1 -14 3 -16 6
-5 2 10 28 24 64 34 37 12 64 26 71 39 7 13 9 79 5 201 -5 161 -9 191 -36 285
-17 58 -35 114 -40 125 -23 48 -50 115 -46 115 3 0 14 -18 25 -40 23 -45 35
-53 20 -15 -10 26 -36 67 -139 219 -34 49 -61 92 -61 95 0 4 -11 20 -25 36
-66 80 -97 120 -106 136 -10 20 -29 26 -29 9z"/>
<path d="M1590 4321 c0 -6 4 -13 10 -16 6 -3 7 1 4 9 -7 18 -14 21 -14 7z"/>
<path d="M2590 4291 c0 -5 5 -13 10 -16 6 -3 10 -2 10 4 0 5 -4 13 -10 16 -5
3 -10 2 -10 -4z"/>
<path d="M1290 4244 c0 -8 5 -12 10 -9 6 4 8 11 5 16 -9 14 -15 11 -15 -7z"/>
<path d="M1450 4236 c0 -33 66 -326 74 -326 3 0 -1 83 -5 90 -1 3 -3 10 -4 15
-1 6 -5 17 -8 25 -9 20 -37 132 -37 145 0 5 16 -23 36 -62 19 -40 40 -73 45
-73 6 0 7 -4 4 -10 -3 -5 -1 -10 4 -10 6 0 11 -7 11 -15 0 -7 6 -18 13 -22 6
-4 17 -17 24 -28 6 -11 16 -19 22 -18 6 2 8 -3 5 -11 -3 -8 -1 -17 5 -21 20
-12 11 31 -11 55 -36 39 -108 150 -141 218 -30 63 -37 72 -37 48z"/>
<path d="M1272 4210 c0 -14 2 -19 5 -12 2 6 2 18 0 25 -3 6 -5 1 -5 -13z"/>
<path d="M2607 4185 c9 -19 18 -33 20 -31 8 8 -10 55 -23 60 -10 4 -10 -2 3
-29z"/>
<path d="M1294 4188 c35 -158 62 -245 72 -236 2 3 0 18 -6 33 -17 45 -50 173
-50 194 0 11 -5 23 -10 26 -7 4 -9 -2 -6 -17z"/>
<path d="M1273 4135 c0 -27 2 -38 4 -22 2 15 2 37 0 50 -2 12 -4 0 -4 -28z"/>
<path d="M3383 4173 c-57 -2 -103 -7 -103 -11 0 -4 21 -6 48 -5 37 2 43 1 27
-7 -16 -8 -11 -9 20 -5 125 14 189 16 255 6 43 -5 90 -6 110 -1 l35 8 -40 3
c-22 1 -60 4 -85 5 -25 1 -72 4 -105 6 -33 2 -106 2 -162 1z"/>
<path d="M2264 4148 c9 -13 35 -51 58 -85 40 -61 62 -79 37 -31 -20 39 -94
137 -103 138 -5 0 -1 -10 8 -22z"/>
<path d="M935 4150 c-3 -5 -1 -10 4 -10 6 0 11 5 11 10 0 6 -2 10 -4 10 -3 0
-8 -4 -11 -10z"/>
<path d="M3148 4146 c-50 -11 -89 -27 -62 -26 30 2 173 38 149 38 -16 0 -56
-5 -87 -12z"/>
<path d="M2595 4140 c3 -5 8 -10 11 -10 2 0 4 5 4 10 0 6 -5 10 -11 10 -5 0
-7 -4 -4 -10z"/>
<path d="M3795 4140 c28 -12 37 -12 30 0 -3 6 -16 10 -28 9 -21 0 -21 -1 -2
-9z"/>
<path d="M2634 4087 c6 -61 35 -134 36 -90 0 25 -27 133 -35 142 -3 3 -4 -21
-1 -52z"/>
<path d="M3738 4133 c7 -3 16 -2 19 1 4 3 -2 6 -13 5 -11 0 -14 -3 -6 -6z"/>
<path d="M929 4040 c-3 -52 0 -138 7 -190 14 -109 63 -303 92 -370 26 -58 28
-36 3 29 -17 42 -54 179 -77 286 -3 17 -9 100 -13 185 l-6 155 -6 -95z"/>
<path d="M3158 4092 c-54 -20 -98 -40 -98 -45 0 -4 17 0 38 9 20 9 73 29 117
45 44 16 71 29 60 28 -11 0 -64 -17 -117 -37z"/>
<path d="M3858 4123 c7 -3 16 -2 19 1 4 3 -2 6 -13 5 -11 0 -14 -3 -6 -6z"/>
<path d="M2610 4111 c0 -6 4 -13 10 -16 6 -3 7 1 4 9 -7 18 -14 21 -14 7z"/>
<path d="M3000 4104 c-25 -9 -49 -21 -55 -26 -7 -8 -4 -9 10 -4 11 4 40 14 65
23 25 8 47 17 49 19 9 9 -26 2 -69 -12z"/>
<path d="M3917 4109 c7 -7 15 -10 18 -7 3 3 -2 9 -12 12 -14 6 -15 5 -6 -5z"/>
<path d="M1196 4092 c-6 -10 -31 -96 -48 -167 -5 -22 -11 -60 -12 -85 -2 -25
-5 -47 -6 -50 -1 -3 -2 -48 -1 -100 0 -70 -2 -89 -9 -72 -5 13 -11 36 -12 53
-1 16 -5 29 -9 29 -15 0 -30 118 -31 237 0 96 -3 118 -9 88 -12 -58 -9 -190 7
-270 22 -107 39 -166 51 -173 6 -4 19 -31 28 -59 10 -29 21 -53 25 -53 4 0 11
-10 15 -22 3 -13 9 -18 11 -11 3 6 -2 23 -11 36 -9 14 -15 29 -14 33 1 5 -2
20 -8 34 -6 14 -11 89 -12 168 -2 112 1 142 11 142 20 0 42 -41 39 -72 -1 -16
2 -28 8 -28 6 0 11 -9 11 -19 0 -11 3 -22 8 -24 4 -3 6 9 6 26 -1 18 -7 31
-13 30 -16 -4 -13 14 3 20 19 8 40 -18 33 -42 -3 -12 1 -22 9 -25 11 -4 13 2
10 27 -6 48 -17 69 -48 95 -15 13 -28 30 -28 37 0 7 -10 15 -21 18 -16 4 -20
10 -14 24 4 10 9 33 11 52 2 19 9 50 16 70 l12 36 7 -30 7 -30 1 30 c1 33 -13
63 -23 47z"/>
<path d="M1273 4067 c3 -9 9 -33 12 -54 10 -56 43 -166 56 -183 9 -13 10 -12
5 3 -29 91 -47 159 -50 197 -2 24 -9 46 -16 48 -9 3 -11 -1 -7 -11z"/>
<path d="M2867 4044 c-16 -9 -26 -18 -23 -21 3 -3 20 4 38 16 38 24 27 28 -15
5z"/>
<path d="M3450 4050 c-16 -5 21 -8 98 -8 67 0 122 4 122 9 0 11 -186 10 -220
-1z"/>
<path d="M3680 4050 c0 -4 30 -10 68 -12 123 -10 296 -69 435 -150 26 -15 47
-23 47 -19 0 19 -220 121 -321 150 -103 29 -229 46 -229 31z"/>
<path d="M3343 4041 c-24 -4 -46 -11 -50 -16 -11 -11 84 2 105 15 20 11 10 11
-55 1z"/>
<path d="M3007 4024 c-16 -9 -27 -18 -24 -20 3 -3 20 4 38 15 39 24 28 28 -14
5z"/>
<path d="M3240 4019 c-98 -26 -216 -63 -225 -70 -15 -14 10 -11 62 9 26 10 83
27 126 37 42 11 77 23 77 27 0 4 -1 8 -2 7 -2 0 -19 -5 -38 -10z"/>
<path d="M2799 4003 c-13 -17 -13 -17 6 -3 11 8 22 16 24 17 2 2 0 3 -6 3 -6
0 -17 -8 -24 -17z"/>
<path d="M1221 4000 c0 -8 4 -22 9 -30 12 -18 12 -2 0 25 -6 13 -9 15 -9 5z"/>
<path d="M2886 3949 c-41 -27 -78 -55 -82 -61 -6 -10 139 83 161 103 24 23
-10 4 -79 -42z"/>
<path d="M1406 3977 c3 -10 9 -15 12 -12 3 3 0 11 -7 18 -10 9 -11 8 -5 -6z"/>
<path d="M2373 3985 c21 -52 80 -165 83 -162 7 6 -50 127 -71 152 -9 11 -15
16 -12 10z"/>
<path d="M2754 3975 c-10 -8 -14 -15 -8 -15 6 0 17 7 24 15 16 19 9 19 -16 0z"/>
<path d="M2670 3938 c0 -20 6 -41 14 -47 12 -10 13 -5 4 31 -12 55 -18 60 -18
16z"/>
<path d="M1111 3944 c0 -11 3 -14 6 -6 3 7 2 16 -1 19 -3 4 -6 -2 -5 -13z"/>
<path d="M1240 3943 c0 -18 20 -66 25 -61 3 3 -1 20 -9 39 -9 19 -15 29 -16
22z"/>
<path d="M1180 3930 c0 -5 5 -10 10 -10 6 0 10 5 10 10 0 6 -4 10 -10 10 -5 0
-10 -4 -10 -10z"/>
<path d="M1370 3926 c0 -8 4 -17 9 -20 5 -4 7 3 4 14 -6 23 -13 26 -13 6z"/>
<path d="M2918 3913 c-38 -14 -68 -29 -68 -34 0 -7 137 44 149 56 9 10 -16 3
-81 -22z"/>
<path d="M1667 3896 c5 -25 4 -25 -43 -21 -27 2 -51 5 -54 6 -3 1 -9 1 -14 0
-5 -1 -13 4 -17 11 -7 10 -9 8 -9 -5 0 -10 8 -21 18 -24 9 -4 20 -11 24 -17 5
-7 8 -7 8 2 0 8 18 12 58 12 54 0 60 -2 97 -40 21 -22 36 -43 32 -46 -4 -4 -7
-3 -7 3 0 13 -64 31 -120 32 -25 1 -46 6 -48 11 -2 6 -8 10 -13 10 -4 0 -6 -6
-3 -14 3 -8 -3 -16 -16 -19 -18 -5 -20 -8 -9 -25 11 -17 21 -20 58 -16 29 3
48 0 54 -8 6 -10 10 -10 13 -1 4 9 14 8 43 -2 75 -26 115 -58 105 -84 -4 -11
-2 -12 11 -1 20 17 19 30 -7 57 -12 13 -17 23 -11 23 6 0 13 -3 15 -7 3 -9
114 -100 135 -112 14 -8 20 -35 22 -110 1 -35 4 -42 13 -33 8 8 9 26 1 67 -5
30 -8 55 -7 55 2 0 15 -5 30 -12 25 -12 26 -15 22 -70 -2 -32 -1 -58 4 -58 4
0 8 -5 8 -11 0 -5 -4 -8 -9 -5 -10 7 -21 -17 -21 -45 0 -12 4 -17 11 -14 6 4
8 13 5 20 -3 8 2 19 10 26 8 7 13 18 10 25 -3 7 1 18 9 24 10 8 14 8 18 -2 2
-7 2 -1 0 14 -3 15 0 35 6 45 9 17 10 17 16 1 4 -10 5 -25 2 -33 -4 -8 -2 -17
3 -20 6 -4 10 -26 10 -51 0 -24 4 -44 9 -44 5 0 8 8 6 18 -12 57 -14 112 -4
112 6 0 8 -4 5 -9 -7 -11 21 -48 30 -39 9 10 -8 49 -44 103 -47 70 -81 99 -52
44 8 -13 7 -19 0 -19 -6 0 -8 -4 -5 -10 3 -5 1 -10 -5 -10 -6 0 -10 6 -9 13 3
23 -1 37 -10 37 -6 0 -8 -9 -6 -20 5 -23 -1 -25 -20 -6 -8 7 -11 17 -7 20 3 4
-1 4 -11 0 -12 -4 -16 -2 -12 7 3 8 -4 20 -15 26 -16 11 -18 10 -13 -3 8 -22
-51 16 -111 71 -28 25 -55 44 -62 41 -7 -3 -11 0 -9 7 3 7 -24 43 -59 80 -51
54 -62 63 -59 43z m408 -366 c-3 -44 -15 -50 -15 -7 0 21 4 37 8 37 5 0 8 -14
7 -30z"/>
<path d="M2025 3910 c3 -5 8 -10 11 -10 2 0 4 5 4 10 0 6 -5 10 -11 10 -5 0
-7 -4 -4 -10z"/>
<path d="M1440 3904 c0 -6 7 -19 16 -30 14 -18 14 -18 3 6 -14 31 -19 36 -19
24z"/>
<path d="M2050 3883 c0 -5 22 -50 50 -98 29 -53 45 -92 39 -95 -6 -4 -3 -12 7
-21 10 -8 34 -50 55 -94 33 -72 37 -76 35 -44 -1 20 -8 44 -15 53 -9 10 -14
38 -14 69 1 49 0 50 -6 12 l-6 -40 -22 47 c-13 26 -23 49 -23 51 0 2 -22 41
-50 87 -27 46 -50 79 -50 73z"/>
<path d="M1861 3843 c19 -23 36 -39 38 -37 3 3 -12 21 -34 42 l-38 37 34 -42z"/>
<path d="M2790 3856 c-90 -47 -88 -46 -93 -23 -3 18 -5 17 -6 -5 0 -17 4 -28
12 -28 19 1 144 69 127 69 -8 0 -26 -5 -40 -13z"/>
<path d="M1406 3847 c3 -10 9 -15 12 -12 3 3 0 11 -7 18 -10 9 -11 8 -5 -6z"/>
<path d="M4240 3850 c0 -5 5 -10 11 -10 6 0 29 -14 50 -31 21 -17 44 -29 49
-27 6 2 -14 20 -45 41 -60 40 -65 42 -65 27z"/>
<path d="M1484 3813 c9 -17 21 -35 27 -39 13 -8 -1 21 -26 51 -15 19 -15 18
-1 -12z"/>
<path d="M1101 3814 c0 -11 3 -14 6 -6 3 7 2 16 -1 19 -3 4 -6 -2 -5 -13z"/>
<path d="M1303 3808 c38 -62 50 -78 54 -74 3 3 -8 22 -23 43 -36 50 -52 65
-31 31z"/>
<path d="M1425 3810 c3 -5 8 -10 11 -10 2 0 4 5 4 10 0 6 -5 10 -11 10 -5 0
-7 -4 -4 -10z"/>
<path d="M2417 3799 c4 -13 8 -18 11 -10 2 7 -1 18 -6 23 -8 8 -9 4 -5 -13z"/>
<path d="M1350 3805 c0 -5 5 -17 10 -25 5 -8 10 -10 10 -5 0 6 -5 17 -10 25
-5 8 -10 11 -10 5z"/>
<path d="M2460 3805 c0 -5 5 -17 10 -25 5 -8 10 -10 10 -5 0 6 -5 17 -10 25
-5 8 -10 11 -10 5z"/>
<path d="M3145 3800 c-16 -5 -46 -13 -65 -18 -19 -5 -64 -21 -100 -35 -36 -14
-99 -32 -141 -41 -42 -9 -85 -23 -95 -31 -13 -10 -1 -9 40 5 65 22 111 26 101
10 -4 -6 8 -2 27 10 18 11 46 20 61 20 16 0 26 4 23 9 -7 11 96 47 190 65 56
12 61 14 29 14 -22 0 -53 -4 -70 -8z"/>
<path d="M971 3784 c0 -11 3 -14 6 -6 3 7 2 16 -1 19 -3 4 -6 -2 -5 -13z"/>
<path d="M1830 3786 c0 -2 8 -10 18 -17 15 -13 16 -12 3 4 -13 16 -21 21 -21
13z"/>
<path d="M1450 3772 c0 -5 12 -19 27 -33 l26 -24 -23 33 c-25 33 -30 38 -30
24z"/>
<path d="M4370 3755 c7 -8 17 -15 22 -15 6 0 5 7 -2 15 -7 8 -17 15 -22 15 -6
0 -5 -7 2 -15z"/>
<path d="M982 3740 c0 -14 2 -19 5 -12 2 6 2 18 0 25 -3 6 -5 1 -5 -13z"/>
<path d="M2480 3755 c0 -5 5 -17 10 -25 5 -8 10 -10 10 -5 0 6 -5 17 -10 25
-5 8 -10 11 -10 5z"/>
<path d="M1545 3731 c-3 -5 -1 -12 5 -16 5 -3 10 1 10 9 0 18 -6 21 -15 7z"/>
<path d="M1382 3721 c-10 -6 -10 -10 3 -21 8 -7 18 -10 22 -6 3 3 1 6 -6 6 -8
0 -11 7 -7 15 6 17 6 18 -12 6z"/>
<path d="M1671 3721 c-15 -10 -7 -66 11 -78 8 -4 9 0 4 13 -4 10 -4 15 0 11 9
-8 44 31 44 50 0 15 -38 17 -59 4z"/>
<path d="M4410 3722 c0 -10 60 -55 66 -49 3 2 -11 16 -31 31 -19 15 -35 23
-35 18z"/>
<path d="M1904 3711 c7 -11 46 -35 46 -28 0 3 -12 12 -26 22 -15 9 -23 12 -20
6z"/>
<path d="M993 3699 c3 -10 11 -35 18 -58 7 -23 16 -41 20 -41 8 0 -27 100 -38
110 -4 3 -4 -2 0 -11z"/>
<path d="M2461 3705 c1 -19 18 -51 18 -35 0 8 -4 22 -9 30 -5 8 -9 11 -9 5z"/>
<path d="M2506 3690 c3 -14 11 -32 16 -40 6 -10 7 -7 2 10 -3 14 -11 32 -16
40 -6 10 -7 7 -2 -10z"/>
<path d="M1266 3692 c-4 -6 -20 -9 -39 -7 l-32 5 33 -10 c28 -9 31 -13 22 -30
-8 -14 -8 -20 0 -20 6 0 15 12 21 27 11 29 8 55 -5 35z"/>
<path d="M1750 3686 c0 -8 -12 -17 -27 -21 -25 -6 -26 -8 -11 -19 10 -7 15
-16 11 -19 -3 -4 9 -6 28 -6 19 1 26 3 17 6 -12 3 -15 13 -12 39 2 19 2 34 -1
34 -3 0 -5 -6 -5 -14z"/>
<path d="M2035 3660 c4 -6 11 -8 16 -5 14 9 11 15 -7 15 -8 0 -12 -5 -9 -10z"/>
<path d="M4480 3657 c0 -2 14 -16 32 -33 l32 -29 -25 32 c-20 27 -39 41 -39
30z"/>
<path d="M1607 3643 c-9 -9 41 -33 67 -32 17 0 15 3 -9 11 -16 6 -35 15 -41
19 -6 5 -14 6 -17 2z"/>
<path d="M2487 3614 c3 -22 10 -47 14 -56 5 -9 10 -27 10 -40 1 -13 3 -17 6
-7 4 15 -22 127 -31 137 -3 2 -2 -13 1 -34z"/>
<path d="M2531 3605 c0 -11 4 -27 9 -35 9 -13 10 -13 9 0 0 8 -4 24 -9 35 l-9
20 0 -20z"/>
<path d="M1723 3603 c15 -2 37 -2 50 0 12 2 0 4 -28 4 -27 0 -38 -2 -22 -4z"/>
<path d="M1901 3594 c0 -11 3 -14 6 -6 3 7 2 16 -1 19 -3 4 -6 -2 -5 -13z"/>
<path d="M3660 3596 c0 -2 7 -7 16 -10 8 -3 12 -2 9 4 -6 10 -25 14 -25 6z"/>
<path d="M1058 3528 c15 -35 37 -81 49 -104 22 -42 53 -74 53 -56 0 6 -3 12
-7 14 -12 5 -40 53 -79 136 -42 88 -53 95 -16 10z"/>
<path d="M3070 3580 c-63 -5 -133 -13 -155 -18 -49 -12 -95 -30 -77 -31 7 -1
21 3 30 8 59 31 413 42 567 17 173 -28 496 -179 628 -294 9 -8 17 -10 17 -5 0
9 -170 133 -183 133 -2 0 -36 17 -75 39 -227 125 -461 172 -752 151z"/>
<path d="M1890 3558 c-4 -29 -5 -32 -17 -53 -6 -11 -7 -29 -3 -40 6 -17 9 -14
20 20 6 23 10 52 7 65 -3 17 -5 19 -7 8z"/>
<path d="M1190 3525 c0 -14 4 -25 9 -25 4 0 6 11 3 25 -2 14 -6 25 -8 25 -2 0
-4 -11 -4 -25z"/>
<path d="M2240 3541 c0 -5 10 -20 23 -33 12 -13 16 -17 10 -8 -7 9 -13 22 -13
28 0 6 -4 14 -10 17 -5 3 -10 2 -10 -4z"/>
<path d="M3767 3539 c7 -7 15 -10 18 -7 3 3 -2 9 -12 12 -14 6 -15 5 -6 -5z"/>
<path d="M980 3520 c6 -11 13 -20 16 -20 2 0 0 9 -6 20 -6 11 -13 20 -16 20
-2 0 0 -9 6 -20z"/>
<path d="M1780 3516 c0 -11 30 -39 36 -34 2 3 -5 13 -16 23 -11 10 -20 15 -20
11z"/>
<path d="M3810 3515 c0 -2 10 -10 23 -16 20 -11 21 -11 8 4 -13 16 -31 23 -31
12z"/>
<path d="M4592 3488 c5 -15 68 -54 68 -41 0 4 -16 18 -36 31 -21 14 -34 18
-32 10z"/>
<path d="M1240 3461 c19 -16 37 -27 40 -24 7 6 -48 53 -63 53 -6 0 4 -13 23
-29z"/>
<path d="M2246 3460 c6 -36 11 -46 18 -39 2 2 -3 20 -10 39 l-14 35 6 -35z"/>
<path d="M2522 3435 c0 -16 2 -22 5 -12 2 9 2 23 0 30 -3 6 -5 -1 -5 -18z"/>
<path d="M3909 3446 c13 -16 51 -41 51 -33 0 2 -15 14 -32 27 -21 15 -28 17
-19 6z"/>
<path d="M2188 3443 c6 -2 12 -16 12 -29 0 -13 4 -24 9 -24 5 0 11 -10 14 -22
4 -12 9 -19 13 -15 10 9 -34 97 -49 96 -9 0 -9 -2 1 -6z"/>
<path d="M2310 3447 c0 -14 24 -57 32 -57 5 0 1 12 -9 28 -22 35 -23 36 -23
29z"/>
<path d="M2710 3438 c0 -9 9 -20 20 -23 11 -3 20 -10 20 -14 0 -23 343 -240
570 -359 47 -25 92 -50 100 -57 8 -6 35 -22 60 -34 58 -30 296 -171 380 -227
36 -24 101 -72 145 -108 108 -89 135 -109 134 -99 0 9 -106 100 -179 155 -101
75 -348 229 -525 325 -60 33 -147 81 -191 106 -45 26 -85 47 -88 47 -4 0 -12
5 -19 10 -7 6 -61 40 -122 76 -131 78 -215 134 -215 145 0 4 -9 11 -21 14 -11
4 -19 9 -16 11 2 3 48 -7 103 -20 54 -14 100 -23 102 -21 5 5 -43 25 -60 25
-29 0 -184 43 -190 53 -5 8 -8 6 -8 -5z"/>
<path d="M1860 3436 c0 -2 8 -10 18 -17 15 -13 16 -12 3 4 -13 16 -21 21 -21
13z"/>
<path d="M4670 3438 c0 -12 69 -83 74 -77 3 3 -12 23 -34 44 -22 22 -40 36
-40 33z"/>
<path d="M1050 3421 c0 -5 5 -13 10 -16 6 -3 10 -2 10 4 0 5 -4 13 -10 16 -5
3 -10 2 -10 -4z"/>
<path d="M1200 3416 c0 -2 11 -27 25 -54 14 -28 25 -59 25 -70 0 -11 11 -27
25 -36 28 -19 35 -20 35 -6 0 6 -7 10 -15 10 -8 0 -15 5 -15 12 0 17 -64 147
-72 148 -5 0 -8 -2 -8 -4z"/>
<path d="M2101 3394 c0 -11 3 -14 6 -6 3 7 2 16 -1 19 -3 4 -6 -2 -5 -13z"/>
<path d="M1887 3384 c3 -7 9 -14 14 -14 14 0 10 17 -5 23 -10 4 -13 1 -9 -9z"/>
<path d="M2271 3363 c25 -100 32 -165 20 -173 -10 -5 -9 -9 3 -13 12 -5 16 0
16 21 0 41 -32 202 -41 202 -4 0 -3 -17 2 -37z"/>
<path d="M2586 3353 c-3 -21 -8 -65 -11 -98 -6 -79 12 -28 21 60 4 33 12 63
18 67 7 5 5 8 -6 8 -11 0 -18 -11 -22 -37z"/>
<path d="M3990 3386 c0 -2 8 -10 18 -17 15 -13 16 -12 3 4 -13 16 -21 21 -21
13z"/>
<path d="M2201 3362 c-1 -25 -35 -97 -50 -106 -5 -4 -8 12 -5 36 3 37 2 39 -5
13 -12 -41 -13 -95 -2 -95 17 0 72 120 68 148 -3 23 -4 23 -6 4z"/>
<path d="M2356 3367 c3 -10 9 -15 12 -12 3 3 0 11 -7 18 -10 9 -11 8 -5 -6z"/>
<path d="M2533 3325 c0 -33 2 -45 4 -27 2 18 2 45 0 60 -2 15 -4 0 -4 -33z"/>
<path d="M2017 3363 c-7 -13 -18 -83 -13 -83 7 0 28 81 23 87 -3 2 -7 1 -10
-4z"/>
<path d="M1910 3351 c0 -6 4 -13 10 -16 6 -3 7 1 4 9 -7 18 -14 21 -14 7z"/>
<path d="M4030 3356 c0 -2 8 -10 18 -17 15 -13 16 -12 3 4 -13 16 -21 21 -21
13z"/>
<path d="M1170 3340 c0 -5 5 -10 11 -10 5 0 7 5 4 10 -3 6 -8 10 -11 10 -2 0
-4 -4 -4 -10z"/>
<path d="M2100 3310 c0 -30 -5 -42 -22 -51 -12 -7 -29 -19 -38 -28 -8 -10 -11
-10 -5 -3 12 17 -8 13 -91 -19 -28 -11 -55 -19 -60 -17 -5 1 -20 -4 -32 -11
-13 -7 -26 -10 -29 -8 -3 3 8 12 24 21 27 15 111 84 86 71 -7 -3 -13 -2 -13 3
0 15 26 33 35 24 5 -4 5 -1 1 6 -8 14 -11 12 -81 -38 -27 -20 -65 -42 -82 -49
-18 -8 -33 -19 -33 -26 0 -12 -42 -35 -63 -34 -7 0 -1 5 12 10 13 5 22 12 19
15 -3 2 -30 -5 -59 -17 -59 -23 -182 -48 -241 -49 -32 0 -39 5 -62 45 -26 43
-46 58 -46 34 0 -7 -12 -9 -35 -5 -64 12 -32 -17 43 -39 12 -4 22 -12 21 -18
-1 -7 7 -34 19 -60 12 -27 22 -50 22 -51 0 -10 -73 10 -83 24 -6 9 -40 27 -75
39 -57 19 -65 20 -91 7 -15 -8 -49 -20 -74 -27 -26 -6 -47 -15 -47 -20 0 -5
-13 -9 -29 -9 -17 0 -32 -4 -35 -8 -3 -5 29 -7 72 -4 42 3 79 9 80 13 5 13 42
11 42 -2 0 -6 -7 -9 -15 -5 -8 3 -15 1 -15 -4 0 -6 12 -10 28 -10 15 0 44 -11
64 -25 39 -27 53 -31 43 -15 -4 6 -24 19 -46 30 -44 23 -48 38 -19 63 25 21
31 22 24 2 -5 -12 22 -31 56 -40 3 0 14 -6 26 -12 36 -21 143 -54 161 -51 10
1 24 -1 32 -6 11 -7 13 -4 7 18 -6 25 1 32 27 27 5 -1 6 3 3 8 -9 14 22 34 44
28 11 -3 49 6 83 19 102 41 140 55 189 69 25 7 56 22 68 33 12 11 28 18 36 15
8 -3 14 -1 14 4 0 13 49 35 61 27 6 -3 25 6 44 21 l35 26 0 -29 c0 -18 6 -32
15 -36 13 -5 15 0 8 32 -4 20 -7 58 -7 85 1 26 -2 47 -7 47 -5 0 -9 -18 -9
-40z"/>
<path d="M2935 3341 c6 -5 24 -13 40 -17 39 -9 30 0 -15 15 -19 6 -30 7 -25 2z"/>
<path d="M1327 3329 c14 -12 53 -21 53 -11 0 5 -14 12 -30 14 -17 3 -27 1 -23
-3z"/>
<path d="M2240 3335 c1 -17 39 -121 40 -106 0 20 -22 94 -32 106 -5 5 -8 5 -8
0z"/>
<path d="M2386 3310 c10 -16 19 -28 21 -26 6 6 -20 56 -29 56 -5 0 -1 -13 8
-30z"/>
<path d="M1137 3310 c-82 -11 -79 -17 7 -16 58 1 72 4 64 14 -6 6 -11 11 -12
11 0 -1 -27 -5 -59 -9z"/>
<path d="M1391 3316 c10 -9 79 -16 79 -8 0 5 -19 9 -42 10 -23 1 -39 0 -37 -2z"/>
<path d="M3020 3310 c20 -13 43 -13 35 0 -3 6 -16 10 -28 10 -18 0 -19 -2 -7
-10z"/>
<path d="M1503 3303 c9 -2 25 -2 35 0 9 3 1 5 -18 5 -19 0 -27 -2 -17 -5z"/>
<path d="M4210 3180 c187 -190 321 -382 384 -549 14 -35 46 -84 46 -68 0 2
-16 40 -35 85 -42 96 -94 187 -147 257 -20 28 -52 70 -70 94 -39 52 -246 269
-268 281 -8 5 32 -40 90 -100z"/>
<path d="M2416 3257 c3 -10 9 -15 12 -12 3 3 0 11 -7 18 -10 9 -11 8 -5 -6z"/>
<path d="M2531 3240 c0 -14 -4 -36 -7 -50 -5 -22 -4 -23 6 -7 6 9 9 32 7 50
-3 25 -4 26 -6 7z"/>
<path d="M2661 3231 c-1 -24 2 -32 9 -25 7 7 7 19 1 35 -9 23 -10 22 -10 -10z"/>
<path d="M4095 3239 c6 -15 54 -53 59 -47 2 1 -12 16 -31 32 -18 15 -31 22
-28 15z"/>
<path d="M2430 3221 c0 -6 4 -13 10 -16 6 -3 7 1 4 9 -7 18 -14 21 -14 7z"/>
<path d="M1176 3211 c-18 -7 -18 -8 4 -14 27 -7 39 -1 24 12 -5 5 -18 5 -28 2z"/>
<path d="M1105 3202 c-16 -2 -34 -8 -40 -13 -7 -7 6 -8 35 -3 25 4 46 8 48 9
8 7 -16 10 -43 7z"/>
<path d="M1010 3180 c-13 -8 -12 -10 3 -10 9 0 17 5 17 10 0 12 -1 12 -20 0z"/>
<path d="M2633 3155 c-28 -42 -30 -56 -4 -24 l19 23 25 -49 c14 -28 27 -44 28
-37 4 27 4 32 -5 31 -14 -1 -46 59 -40 76 10 25 0 17 -23 -20z"/>
<path d="M897 3173 c-4 -3 -7 -11 -7 -17 0 -6 5 -5 12 2 6 6 9 14 7 17 -3 3
-9 2 -12 -2z"/>
<path d="M4170 3165 c7 -9 15 -13 17 -11 7 7 -7 26 -19 26 -6 0 -6 -6 2 -15z"/>
<path d="M4222 3111 c13 -17 27 -30 31 -30 5 -1 -2 12 -15 28 -13 17 -27 30
-31 30 -5 1 2 -12 15 -28z"/>
<path d="M2180 3088 c-63 -22 -144 -43 -179 -48 -35 -5 -67 -12 -72 -17 -14
-14 124 5 174 23 110 39 198 64 207 59 6 -3 10 1 10 9 0 21 -6 20 -140 -26z"/>
<path d="M2706 3051 c-3 -4 -2 -21 3 -37 4 -16 7 -54 7 -84 -1 -46 -7 -64 -39
-111 -20 -31 -37 -58 -37 -61 0 -2 34 0 76 5 46 5 80 5 87 -1 11 -9 91 -25
129 -26 9 -1 20 -4 24 -8 4 -5 11 -8 16 -8 17 0 7 16 -26 38 -42 28 -96 77
-96 85 0 11 -39 47 -51 47 -6 0 -9 6 -6 13 3 8 1 20 -4 28 -6 10 -9 10 -9 2 0
-7 -4 -13 -10 -13 -5 0 -10 9 -10 20 0 10 -6 23 -14 27 -14 8 -34 63 -22 63 3
0 15 -18 26 -41 12 -23 24 -39 26 -36 5 5 -54 107 -61 107 -2 0 -6 -4 -9 -9z
m54 -149 c0 -12 -28 -48 -33 -42 -8 8 11 50 23 50 5 0 10 -4 10 -8z m-35 -72
c-3 -5 -11 -10 -16 -10 -6 0 -7 5 -4 10 3 6 11 10 16 10 6 0 7 -4 4 -10z"/>
<path d="M2560 3000 c-6 -11 -8 -20 -6 -20 3 0 10 9 16 20 6 11 8 20 6 20 -3
0 -10 -9 -16 -20z"/>
<path d="M1986 2983 c-2 -2 -26 -4 -55 -4 -44 -1 -71 -12 -59 -24 5 -6 178 22
185 29 4 4 -10 6 -30 4 -21 -1 -39 -4 -41 -5z"/>
<path d="M1800 2970 c-22 -7 -21 -8 12 -9 20 -1 40 4 43 9 7 12 -19 12 -55 0z"/>
<path d="M1516 2953 c-6 -14 -5 -15 5 -6 7 7 10 15 7 18 -3 3 -9 -2 -12 -12z"/>
<path d="M1550 2950 c-12 -8 -11 -10 8 -10 12 0 22 5 22 10 0 13 -11 13 -30 0z"/>
<path d="M1286 2931 c10 -10 21 -14 23 -8 4 10 -17 27 -33 27 -5 0 -1 -8 10
-19z"/>
<path d="M2560 2930 c-6 -11 -8 -20 -6 -20 3 0 10 9 16 20 6 11 8 20 6 20 -3
0 -10 -9 -16 -20z"/>
<path d="M793 2885 c0 -22 2 -30 4 -17 2 12 2 30 0 40 -3 9 -5 -1 -4 -23z"/>
<path d="M1100 2896 c0 -6 -15 -17 -33 -24 -43 -16 -67 -58 -65 -115 2 -32 -3
-52 -15 -65 -11 -12 -15 -26 -11 -37 5 -13 4 -16 -4 -11 -8 5 -10 1 -5 -10 4
-12 3 -15 -5 -10 -8 5 -10 2 -6 -9 12 -30 27 -9 50 70 25 83 29 90 47 90 7 0
12 10 11 23 0 12 5 22 12 22 7 0 16 9 19 20 12 36 21 21 18 -32 -1 -28 -7 -54
-13 -58 -6 -4 -17 -18 -24 -32 -13 -25 -13 -25 14 -15 19 7 34 25 48 59 11 26
24 48 30 48 5 0 23 -16 41 -35 18 -20 37 -32 43 -29 7 5 4 12 -8 21 -43 31
-64 54 -64 68 0 23 39 18 61 -7 10 -13 18 -18 19 -12 0 22 -70 67 -132 85 -20
5 -28 4 -28 -5z m50 -76 c-16 -31 -23 -18 -8 15 7 15 14 23 16 17 2 -6 -2 -21
-8 -32z m-103 -16 c-3 -3 -12 -4 -19 -1 -8 3 -5 6 6 6 11 1 17 -2 13 -5z"/>
<path d="M1315 2877 c-5 -18 -1 -31 14 -46 12 -12 26 -21 32 -21 7 0 0 12 -15
27 -33 33 -25 45 9 13 37 -35 32 -56 -12 -51 -6 1 -14 -3 -17 -8 -4 -5 2 -10
11 -9 10 0 34 -3 53 -6 19 -3 29 -4 23 0 -7 3 -13 13 -13 23 0 9 -18 36 -39
60 l-40 44 -6 -26z"/>
<path d="M2476 2884 c-5 -14 -4 -15 9 -4 17 14 19 20 6 20 -5 0 -12 -7 -15
-16z"/>
<path d="M2519 2863 c-13 -16 -12 -17 4 -4 9 7 17 15 17 17 0 8 -8 3 -21 -13z"/>
<path d="M2480 2849 c0 -5 5 -7 10 -4 6 3 10 8 10 11 0 2 -4 4 -10 4 -5 0 -10
-5 -10 -11z"/>
<path d="M787 2833 c-10 -16 -47 -166 -42 -171 2 -3 6 1 9 9 30 102 45 163 42
166 -2 3 -6 0 -9 -4z"/>
<path d="M1275 2800 c3 -5 14 -10 23 -10 15 0 15 2 2 10 -20 13 -33 13 -25 0z"/>
<path d="M4135 2795 c11 -9 29 -21 40 -26 l20 -10 -20 16 c-11 9 -29 21 -40
26 l-20 10 20 -16z"/>
<path d="M1440 2751 c0 -5 12 -17 28 -26 l27 -18 -24 27 c-26 28 -31 31 -31
17z"/>
<path d="M3710 2740 c20 -13 33 -13 25 0 -3 6 -14 10 -23 10 -15 0 -15 -2 -2
-10z"/>
<path d="M1264 2715 c11 -8 22 -12 25 -9 6 6 -19 24 -34 24 -5 -1 -1 -7 9 -15z"/>
<path d="M3760 2720 c8 -5 22 -10 30 -10 13 0 13 1 0 10 -8 5 -22 10 -30 10
-13 0 -13 -1 0 -10z"/>
<path d="M1500 2706 c0 -3 9 -10 20 -16 11 -6 20 -8 20 -6 0 3 -9 10 -20 16
-11 6 -20 8 -20 6z"/>
<path d="M1030 2690 c0 -5 5 -10 11 -10 5 0 7 5 4 10 -3 6 -8 10 -11 10 -2 0
-4 -4 -4 -10z"/>
<path d="M1300 2694 c0 -3 15 -21 34 -41 23 -24 36 -32 41 -24 4 8 -1 14 -14
18 -12 3 -21 10 -21 17 0 6 -9 17 -20 24 -11 7 -20 10 -20 6z"/>
<path d="M674 2664 c-18 -14 -18 -15 4 -4 12 6 22 13 22 15 0 8 -5 6 -26 -11z"/>
<path d="M2499 2604 c-45 -46 -83 -70 -224 -140 -93 -47 -177 -92 -185 -100
-8 -8 22 3 68 26 45 22 89 40 97 40 7 0 16 4 20 9 3 6 40 27 82 48 73 36 215
154 202 167 -3 3 -30 -19 -60 -50z"/>
<path d="M1390 2620 c0 -5 5 -10 10 -10 6 0 10 5 10 10 0 6 -4 10 -10 10 -5 0
-10 -4 -10 -10z"/>
<path d="M473 2603 c9 -2 25 -2 35 0 9 3 1 5 -18 5 -19 0 -27 -2 -17 -5z"/>
<path d="M328 2593 c18 -2 45 -2 60 0 15 2 0 4 -33 4 -33 0 -45 -2 -27 -4z"/>
<path d="M752 2570 c0 -14 2 -19 5 -12 2 6 2 18 0 25 -3 6 -5 1 -5 -13z"/>
<path d="M962 2540 c0 -14 2 -19 5 -12 2 6 2 18 0 25 -3 6 -5 1 -5 -13z"/>
<path d="M973 2513 c-15 -6 -17 -81 -3 -103 5 -8 10 -10 11 -5 1 6 5 -8 9 -30
4 -22 24 -92 44 -155 35 -113 36 -114 31 -55 -4 59 -4 60 10 27 15 -35 17
-102 3 -102 -4 0 -8 -5 -8 -11 0 -18 62 25 71 50 5 13 7 26 4 29 -2 3 -1 10 4
16 5 6 11 27 14 46 6 34 6 34 -5 8 -7 -16 -15 -28 -18 -28 -10 0 -7 45 3 51
13 9 0 42 -13 34 -5 -3 -10 3 -10 14 0 12 -4 21 -10 21 -5 0 -10 7 -10 15 0
10 -6 12 -17 8 -16 -6 -16 -5 -4 10 12 15 12 17 -1 12 -14 -6 -32 25 -29 48 1
4 -3 7 -9 7 -5 0 -10 6 -10 13 0 16 -28 75 -38 80 -4 3 -13 2 -19 0z m20 -43
c3 -12 0 -20 -8 -20 -8 0 -11 8 -8 20 3 11 7 20 8 20 1 0 5 -9 8 -20z m117
-180 c0 -5 -4 -10 -10 -10 -5 0 -10 5 -10 10 0 6 5 10 10 10 6 0 10 -4 10 -10z
m7 -122 c-3 -7 -5 -2 -5 12 0 14 2 19 5 13 2 -7 2 -19 0 -25z"/>
<path d="M750 2495 c0 -29 -49 -182 -81 -256 -41 -93 -48 -185 -19 -265 12
-32 26 -77 31 -99 6 -22 19 -65 30 -95 18 -49 47 -177 64 -287 4 -24 10 -43
15 -43 4 0 6 -9 3 -20 -3 -12 0 -20 7 -20 6 0 10 -6 8 -12 -3 -7 1 -23 8 -37
9 -17 10 -31 3 -50 -9 -24 -7 -23 27 11 21 20 38 45 39 55 3 26 12 50 45 118
18 38 27 69 24 83 -4 12 -3 30 1 39 12 29 14 62 4 68 -5 4 -9 1 -9 -5 0 -7 -7
-10 -15 -6 -12 4 -15 -4 -15 -39 0 -24 -5 -47 -10 -50 -6 -4 -8 -11 -5 -16 3
-5 -1 -6 -10 -3 -14 6 -14 9 0 30 20 31 20 94 0 94 -8 0 -16 9 -16 20 -1 11
-3 25 -4 30 -1 6 -3 14 -4 18 -2 12 -64 2 -74 -12 -5 -7 -7 -3 -5 9 2 14 12
21 34 23 30 3 31 5 27 40 -3 20 -9 42 -13 47 -9 11 -49 127 -56 160 -9 44 -34
190 -34 198 0 22 39 -17 45 -45 4 -18 18 -66 31 -106 14 -41 22 -78 19 -83 -4
-5 -2 -9 4 -9 6 0 8 -7 5 -15 -4 -10 0 -15 11 -15 11 0 15 -5 11 -15 -3 -8 3
-34 14 -57 16 -36 20 -40 26 -23 5 11 3 20 -4 23 -7 2 -12 10 -12 18 0 8 -16
70 -36 137 -20 67 -43 156 -51 197 -8 41 -18 77 -23 80 -7 5 -15 46 -26 145
-6 50 -14 74 -14 40z m-64 -291 c-4 -9 -9 -15 -11 -12 -3 3 -3 13 1 22 4 9 9
15 11 12 3 -3 3 -13 -1 -22z m23 -35 c-20 -12 -49 -11 -49 2 0 6 6 9 14 6 8
-3 20 1 27 10 10 11 14 12 17 3 3 -7 -2 -16 -9 -21z m-16 -36 c-7 -2 -19 -2
-25 0 -7 3 -2 5 12 5 14 0 19 -2 13 -5z m15 -20 c-16 -2 -28 -9 -28 -14 0 -5
-4 -9 -10 -9 -5 0 -7 7 -4 15 4 9 18 14 38 14 30 -2 30 -2 4 -6z m-35 -73 c3
-14 1 -20 -6 -17 -7 2 -14 14 -15 26 -4 28 13 20 21 -9z m57 -48 c24 -1 46 -5
49 -8 3 -3 6 -23 6 -45 0 -21 3 -39 7 -39 13 0 9 -30 -4 -31 -83 -4 -88 -4
-88 14 0 16 10 21 38 18 6 -1 12 3 12 10 0 7 -10 9 -29 6 -30 -6 -41 5 -41 40
0 12 3 13 13 4 15 -12 27 -5 27 14 0 7 -11 10 -30 7 -16 -2 -30 0 -30 5 0 14
13 24 19 16 3 -5 26 -9 51 -11z m43 -158 c9 -1 17 3 18 10 0 6 4 1 9 -12 5
-12 11 -25 12 -28 2 -4 -8 -11 -22 -16 -13 -5 -21 -6 -17 -2 12 12 -36 32 -50
21 -10 -7 -13 -3 -13 16 0 26 30 43 40 22 3 -5 13 -11 23 -11z m127 -299 c-7
-9 -15 -13 -19 -10 -3 3 1 10 9 15 21 14 24 12 10 -5z m20 -25 c0 -5 -5 -10
-11 -10 -5 0 -7 5 -4 10 3 6 8 10 11 10 2 0 4 -4 4 -10z"/>
<path d="M741 1966 c-10 -11 -9 -14 1 -12 14 2 23 15 15 22 -2 2 -10 -2 -16
-10z"/>
<path d="M4150 2501 c0 -5 5 -13 10 -16 6 -3 10 -2 10 4 0 5 -4 13 -10 16 -5
3 -10 2 -10 -4z"/>
<path d="M1275 2469 c5 -14 2 -16 -15 -12 -16 4 -20 1 -20 -20 0 -14 -6 -28
-12 -30 -7 -3 -2 -6 10 -6 16 -1 26 6 29 19 5 18 33 29 33 13 0 -4 -19 -43
-41 -86 -33 -63 -39 -81 -28 -88 11 -7 11 -9 -2 -9 -9 0 -20 -8 -23 -17 -5
-13 -9 -14 -15 -5 -5 8 -8 2 -8 -17 0 -16 -11 -54 -24 -85 -19 -45 -30 -58
-51 -63 -16 -3 -28 -9 -28 -14 0 -5 3 -8 8 -8 36 6 42 -20 14 -63 l-18 -27
-18 20 c-21 25 -22 25 -28 -26 -5 -34 -3 -41 12 -42 13 -1 17 4 13 20 l-5 22
16 -22 c16 -21 16 -25 1 -54 -9 -17 -14 -33 -11 -37 3 -3 11 9 17 26 9 27 28
44 53 46 5 1 11 8 13 16 4 13 3 13 -6 0 -18 -26 -12 3 9 43 11 21 18 42 15 47
-4 6 2 7 12 3 16 -6 17 -5 3 12 -8 10 -10 16 -4 12 14 -8 27 20 17 36 -4 7 2
5 12 -3 11 -9 16 -10 11 -2 -4 7 -2 12 4 12 6 0 9 4 6 8 -2 4 4 18 13 31 l18
23 -5 -32 c-7 -49 15 -28 23 22 6 33 9 38 17 25 13 -25 20 -21 51 28 16 24 37
47 48 50 11 4 17 11 14 16 -4 5 -1 9 5 9 6 0 26 11 44 25 34 26 56 32 56 15 0
-13 26 -13 50 0 24 13 15 40 -12 40 -10 0 -17 4 -14 9 3 4 0 16 -7 25 -12 16
-15 17 -55 1 -23 -9 -47 -15 -54 -12 -7 2 6 10 29 16 23 6 45 16 48 21 3 5
-13 3 -36 -5 -28 -10 -46 -12 -58 -5 -14 8 -14 9 4 10 11 0 29 8 40 17 20 16
16 15 -29 -3 -18 -7 -29 25 -15 42 9 11 6 12 -21 2 -27 -9 -35 -8 -44 4 -6 8
-23 17 -39 20 -23 4 -27 2 -22 -13z m235 -124 c8 5 11 3 8 -5 -3 -11 -76 -42
-79 -34 -7 20 -1 31 21 41 17 7 27 8 31 1 4 -6 12 -7 19 -3z m-247 -150 c-3
-9 -8 -14 -10 -11 -3 3 -2 9 2 15 9 16 15 13 8 -4z m-162 -258 c-10 -9 -11 -8
-5 6 3 10 9 15 12 12 3 -3 0 -11 -7 -18z"/>
<path d="M4181 2473 c0 -4 17 -21 36 -38 24 -20 32 -23 24 -10 -15 23 -61 60
-60 48z"/>
<path d="M2428 2423 c12 -2 30 -2 40 0 9 3 -1 5 -23 4 -22 0 -30 -2 -17 -4z"/>
<path d="M2495 2425 c6 -2 57 -5 115 -8 58 -2 94 0 80 4 -24 7 -215 11 -195 4z"/>
<path d="M4930 2420 c0 -5 5 -10 10 -10 6 0 10 5 10 10 0 6 -4 10 -10 10 -5 0
-10 -4 -10 -10z"/>
<path d="M2308 2413 c6 -2 18 -2 25 0 6 3 1 5 -13 5 -14 0 -19 -2 -12 -5z"/>
<path d="M2268 2403 c7 -3 16 -2 19 1 4 3 -2 6 -13 5 -11 0 -14 -3 -6 -6z"/>
<path d="M2748 2403 c6 -2 18 -2 25 0 6 3 1 5 -13 5 -14 0 -19 -2 -12 -5z"/>
<path d="M4940 2342 c0 -32 -4 -83 -9 -113 -16 -90 -30 -163 -36 -189 -6 -23
-5 -24 6 -5 7 10 18 46 26 80 14 67 30 285 20 285 -4 0 -7 -26 -7 -58z"/>
<path d="M4342 2273 c38 -115 56 -157 43 -98 -18 82 -64 215 -74 215 -4 0 10
-53 31 -117z"/>
<path d="M1206 2364 c-4 -9 -4 -19 -1 -22 2 -3 7 3 11 12 4 9 4 19 1 22 -2 3
-7 -3 -11 -12z"/>
<path d="M2885 2371 c11 -4 36 -11 55 -15 24 -4 29 -3 15 3 -11 4 -36 11 -55
15 -24 4 -29 3 -15 -3z"/>
<path d="M2095 2340 c-3 -5 -2 -10 4 -10 5 0 13 5 16 10 3 6 2 10 -4 10 -5 0
-13 -4 -16 -10z"/>
<path d="M2990 2340 c8 -5 22 -10 30 -10 13 0 13 1 0 10 -8 5 -22 10 -30 10
-13 0 -13 -1 0 -10z"/>
<path d="M2122 2333 c-6 -2 -10 -8 -8 -11 2 -4 -21 -7 -53 -8 -55 -1 -101 -16
-151 -51 l-25 -17 23 23 c31 31 27 34 -15 8 -21 -12 -42 -22 -48 -23 -5 0 -17
-2 -25 -3 -13 -1 -13 -3 0 -12 13 -9 12 -10 -3 -5 -21 7 -137 -23 -137 -36 0
-4 -4 -8 -10 -8 -14 0 -12 20 3 25 6 2 31 9 55 15 23 6 42 15 42 20 0 5 -17 2
-37 -7 -21 -8 -55 -16 -77 -17 -22 -1 -42 -8 -44 -14 -2 -7 1 -12 7 -12 6 0
11 5 11 12 0 18 14 0 15 -21 1 -10 -7 -24 -17 -30 -12 -8 -18 -8 -18 0 0 5 -5
7 -11 3 -8 -5 -10 1 -7 20 3 14 4 26 2 26 -9 0 -34 -62 -34 -85 0 -14 -4 -25
-10 -25 -5 0 -10 -5 -10 -11 0 -5 5 -7 10 -4 7 4 9 -3 6 -20 -6 -33 -17 -45
-23 -27 -4 10 -11 8 -29 -9 -13 -12 -24 -17 -24 -11 0 6 5 14 10 17 14 9 12
27 -2 23 -7 -3 -12 -13 -12 -24 3 -54 4 -55 25 -49 19 6 21 4 15 -19 -7 -27 7
-36 21 -13 5 7 10 -5 13 -33 7 -55 3 -70 -16 -63 -19 7 -18 -10 5 -57 19 -39
37 -131 32 -159 -1 -7 1 -20 5 -30 3 -9 8 -36 10 -61 1 -25 6 -63 9 -85 6 -31
4 -37 -5 -29 -6 6 -13 27 -15 45 -2 19 -8 51 -13 71 -5 20 -7 39 -4 42 2 3 -2
8 -11 12 -9 3 -13 12 -10 21 4 11 2 14 -5 9 -7 -4 -12 -1 -12 8 0 8 -5 18 -12
22 -6 4 -8 3 -5 -3 10 -17 -16 -32 -38 -22 -19 7 -19 8 3 8 20 1 34 31 13 31
-4 0 -6 12 -3 28 4 23 3 25 -10 15 -8 -7 -17 -10 -21 -7 -3 3 -10 -4 -17 -15
-8 -16 -8 -21 2 -21 8 0 9 -3 3 -8 -5 -4 -11 -16 -13 -27 -11 -82 -20 -126
-25 -132 -4 -3 -7 5 -7 18 -1 24 -1 24 -16 -4 -15 -27 -12 -63 3 -54 5 3 9 -8
10 -24 1 -15 -2 -31 -7 -34 -6 -4 -10 4 -10 17 0 19 -3 18 -19 -12 -10 -19
-16 -42 -14 -50 11 -34 29 -66 46 -78 18 -14 24 -72 6 -72 -5 0 -7 5 -3 11 7
12 -15 31 -28 23 -4 -3 -8 -15 -9 -27 0 -12 -3 -16 -6 -9 -12 30 -19 7 -19
-58 1 -39 -2 -70 -6 -70 -5 0 -8 -11 -8 -23 0 -34 -9 -38 -39 -20 -14 10 -27
18 -29 18 -1 1 5 18 13 38 18 43 19 50 4 41 -8 -4 -9 4 -4 27 9 44 30 66 22
24 -5 -27 -4 -28 9 -11 12 17 12 22 -3 38 -14 16 -12 23 10 19 10 -2 8 11 -7
38 -11 19 -14 21 -19 7 -4 -9 -4 -22 -1 -30 3 -8 1 -17 -5 -21 -6 -3 -11 0
-11 7 0 7 -10 -4 -22 -24 -12 -21 -26 -38 -30 -38 -12 0 -9 38 4 46 7 4 8 3 4
-4 -4 -7 -3 -12 2 -12 10 0 22 23 22 42 0 7 -5 6 -14 -1 -11 -9 -18 -5 -35 21
-13 21 -21 27 -21 16 0 -9 6 -19 13 -21 6 -3 2 -6 -10 -6 -17 -1 -20 -5 -15
-24 3 -12 10 -25 16 -30 7 -5 4 -11 -9 -19 -29 -17 -54 -17 -48 0 5 12 2 12
-17 2 -12 -7 -19 -15 -14 -19 9 -6 17 -51 9 -51 -2 0 -11 12 -19 28 l-15 27
-1 -27 c0 -16 4 -28 8 -28 15 0 11 -38 -5 -44 -8 -4 -13 -13 -10 -20 3 -8 -1
-20 -8 -26 -9 -8 -13 -21 -9 -36 4 -15 2 -24 -5 -24 -6 0 -11 7 -11 15 0 8 -5
15 -11 15 -6 0 -8 -8 -5 -18 4 -11 1 -19 -6 -20 -32 -2 -52 -10 -55 -19 -5
-15 18 -28 26 -15 3 6 19 14 34 17 27 7 28 6 21 -21 -4 -16 -10 -31 -14 -34
-4 -3 -11 -16 -15 -30 -15 -52 -46 -111 -61 -117 -12 -4 -12 -8 -2 -21 11 -13
10 -15 -10 -10 -12 4 -20 2 -16 -3 13 -22 -15 -5 -54 33 -35 33 -46 38 -53 27
-5 -8 -9 -10 -9 -5 0 5 13 21 28 35 16 14 32 33 35 41 4 8 16 29 26 45 21 32
28 81 11 70 -6 -4 -8 -11 -5 -16 4 -5 1 -9 -5 -9 -6 0 -29 -18 -51 -40 -22
-22 -37 -40 -34 -40 4 0 -17 -25 -47 -56 -29 -30 -54 -60 -56 -65 -2 -5 -9 -9
-16 -9 -6 0 -29 -23 -51 -50 -22 -28 -43 -50 -47 -50 -5 0 -8 -9 -8 -20 0 -12
-7 -20 -16 -20 -9 0 -14 -6 -11 -12 2 -7 -13 -40 -34 -73 -21 -33 -36 -61 -34
-63 1 -2 15 9 30 23 25 26 27 26 45 10 14 -13 23 -14 38 -6 18 10 20 8 17 -24
-4 -40 1 -43 25 -15 15 17 19 18 23 5 4 -8 -1 -19 -11 -24 -14 -9 -13 -10 10
-11 25 0 26 -3 23 -38 -2 -21 -9 -50 -14 -66 -8 -20 -8 -33 1 -49 13 -26 55
-67 69 -67 5 0 9 -5 9 -10 0 -6 9 -19 19 -29 10 -10 26 -44 35 -75 11 -37 22
-56 32 -56 10 0 13 6 10 18 -17 56 -52 246 -61 337 l-5 50 20 -25 c58 -70 133
-141 145 -136 8 3 15 2 17 -2 4 -8 113 -62 126 -62 5 0 22 -6 38 -14 16 -8 52
-20 79 -27 28 -6 75 -20 105 -31 30 -10 60 -20 65 -22 6 -1 20 -7 32 -14 12
-7 29 -12 39 -12 10 0 14 -3 10 -7 -9 -10 -190 -21 -196 -12 -9 12 -73 22 -66
10 4 -6 2 -11 -4 -11 -6 0 -13 6 -16 14 -3 8 -14 12 -27 9 -16 -3 -18 -2 -9 5
11 7 9 10 -6 14 -33 9 -43 -10 -24 -48 l16 -34 1650 0 c907 0 1646 3 1642 7
-7 8 -11 8 -56 12 -22 1 -23 3 -7 12 25 15 21 29 -10 30 -16 0 -22 3 -15 6 6
2 10 9 7 14 -4 5 1 6 9 3 11 -4 14 2 13 30 -1 22 -7 36 -15 36 -7 0 -11 -4 -8
-8 2 -4 -4 -8 -14 -9 -13 -1 -17 3 -13 13 3 8 11 14 17 14 7 0 13 7 13 15 0 8
-6 15 -14 15 -7 0 -13 -4 -13 -10 0 -5 -11 -10 -25 -10 -16 0 -25 6 -25 15 0
8 8 15 18 15 20 0 42 18 42 34 0 6 -5 5 -12 -2 -17 -17 -29 -15 -22 3 8 21
-13 19 -26 -2 -9 -15 -10 -13 -5 10 4 19 2 26 -5 22 -5 -3 -14 -4 -20 0 -11 7
-2 35 12 35 5 0 7 -4 3 -9 -3 -6 6 -9 20 -8 14 1 29 8 34 15 4 7 12 12 17 11
21 -6 74 14 74 27 0 9 -4 12 -10 9 -5 -3 -10 -1 -10 4 0 6 5 11 10 11 6 0 10
4 10 9 0 12 -62 21 -75 11 -18 -13 -88 -22 -80 -11 3 6 2 11 -4 11 -5 0 -13
-4 -16 -10 -3 -5 -12 -10 -18 -10 -7 0 -6 4 3 11 12 8 9 9 -11 5 -21 -5 -28
-1 -32 14 -3 12 1 21 12 24 9 3 -2 3 -24 0 -25 -3 -35 -1 -27 4 11 8 11 10 -2
15 -8 3 -17 1 -20 -6 -2 -7 -5 1 -5 16 -1 16 3 26 9 22 14 -8 13 8 -1 22 -9 9
-8 11 2 9 14 -3 47 -15 62 -23 4 -2 7 0 7 4 0 10 -122 73 -140 73 -10 0 -10
-3 -1 -14 10 -12 9 -14 -5 -12 -10 2 -20 8 -22 14 -2 6 -11 9 -20 6 -15 -5
-15 -4 1 6 9 6 15 15 12 21 -10 15 -33 10 -38 -8 -3 -11 -5 -7 -6 10 0 15 -8
30 -16 33 -8 4 -15 12 -15 20 0 8 -7 14 -15 14 -8 0 -15 7 -15 15 0 8 -17 29
-37 47 -20 18 -58 53 -83 78 -80 78 -121 111 -131 105 -5 -4 -9 0 -9 9 0 8 -6
16 -12 19 -31 11 4 17 43 8 24 -6 83 -11 131 -11 75 0 92 3 121 23 l34 23
-126 -2 -126 -2 105 8 c94 7 180 24 180 35 0 4 -25 2 -136 -10 -64 -8 -215 8
-269 27 -67 24 -175 82 -175 95 0 17 -4 18 85 -23 126 -58 331 -82 430 -49
l40 13 -43 1 c-26 1 -41 5 -37 11 3 6 14 10 24 10 10 0 24 7 31 15 10 12 10
15 -1 15 -10 0 -11 2 -2 8 6 4 -57 7 -140 7 -155 0 -275 20 -322 51 -26 18 -2
18 38 0 50 -22 132 -37 249 -43 l107 -6 10 27 c6 14 15 26 21 26 6 0 9 4 6 9
-4 5 0 12 6 14 8 4 7 6 -3 6 -15 1 -34 27 -31 43 2 10 -150 1 -181 -11 -16 -6
-38 -11 -50 -10 -12 0 -2 6 23 13 25 6 53 17 64 23 17 9 16 11 -9 17 -15 4
-36 4 -47 0 -13 -4 -24 -1 -29 7 -7 11 -9 10 -9 -3 0 -10 -4 -18 -10 -18 -5 0
-7 7 -3 16 4 12 0 14 -20 9 -14 -4 -28 -2 -31 4 -5 7 3 11 19 11 22 0 24 3 16
19 -12 21 2 31 43 31 12 0 31 7 42 15 17 13 14 14 -36 9 -51 -5 -53 -5 -30 8
14 8 27 12 30 9 3 -3 19 -7 37 -7 25 -2 33 3 38 23 3 13 3 28 0 34 -4 5 -3 9
2 8 20 -3 34 2 28 11 -9 15 18 12 41 -5 18 -12 70 -13 82 -1 9 10 -17 41 -62
73 -28 21 -53 40 -56 44 -3 3 -30 21 -60 40 -30 18 -60 40 -67 49 -7 8 -13 12
-13 8 0 -4 -15 7 -32 23 -103 94 -564 346 -733 400 -38 12 -97 34 -130 49 -33
15 -95 39 -138 55 -42 15 -76 29 -75 31 4 3 169 -30 222 -45 37 -10 67 -7 35
3 -39 13 -193 46 -261 56 -42 6 -125 25 -185 42 -59 16 -123 33 -142 35 -23 4
-29 8 -20 14 15 9 2 11 -19 2z m-257 -103 c-3 -5 -11 -10 -16 -10 -6 0 -7 5
-4 10 3 6 11 10 16 10 6 0 7 -4 4 -10z m1705 -564 c0 -3 -4 -8 -10 -11 -5 -3
-10 -1 -10 4 0 6 5 11 10 11 6 0 10 -2 10 -4z m24 -48 c-2 -4 4 -11 13 -17 10
-6 13 -11 7 -11 -7 0 -22 8 -34 18 -21 17 -21 18 -2 18 11 0 19 -4 16 -8z
m-2120 -22 c-6 -16 -24 -23 -24 -8 0 10 22 33 27 28 2 -2 1 -11 -3 -20z m-53
-99 c-8 -8 -11 -7 -11 4 0 9 3 19 7 23 4 4 9 2 11 -4 3 -7 -1 -17 -7 -23z m20
-20 c-10 -9 -11 -8 -5 6 3 10 9 15 12 12 3 -3 0 -11 -7 -18z m-21 -92 c0 -14
-4 -25 -9 -25 -12 0 -23 29 -15 41 10 18 24 9 24 -16z m2267 -121 c-3 -3 -12
-4 -19 -1 -8 3 -5 6 6 6 11 1 17 -2 13 -5z m-180 -20 c-3 -3 -12 -4 -19 -1 -8
3 -5 6 6 6 11 1 17 -2 13 -5z m103 2 c0 -2 -7 -7 -16 -10 -8 -3 -12 -2 -9 4 6
10 25 14 25 6z m170 -10 c0 -11 -19 -15 -25 -6 -3 5 1 10 9 10 9 0 16 -2 16
-4z m-65 -16 c-3 -5 -15 -10 -26 -10 -11 0 -17 5 -14 10 3 6 15 10 26 10 11 0
17 -4 14 -10z m-72 -17 c-7 -2 -21 -2 -30 0 -10 3 -4 5 12 5 17 0 24 -2 18 -5z
m-2406 -45 c-3 -8 -6 -5 -6 6 -1 11 2 17 5 13 3 -3 4 -12 1 -19z m2195 -28
c64 -37 160 -61 276 -67 113 -6 152 -18 65 -20 -64 -1 -176 15 -238 34 -54 17
-155 62 -155 69 0 9 20 3 52 -16z m-2194 -36 c-7 -15 -14 -21 -16 -15 -5 16 5
41 17 41 7 0 6 -10 -1 -26z m2649 0 c-3 -3 -12 -4 -19 -1 -8 3 -5 6 6 6 11 1
17 -2 13 -5z m-2807 -61 c-11 -17 -11 -17 -6 0 3 10 6 24 7 30 0 9 2 9 5 0 3
-7 0 -20 -6 -30z m2535 -58 l50 -15 -45 6 c-25 4 -52 10 -60 15 -22 13 -1 10
55 -6z m-145 -5 c0 -5 -2 -10 -4 -10 -3 0 -8 5 -11 10 -3 6 -1 10 4 10 6 0 11
-4 11 -10z m-40 -35 c13 -14 21 -25 18 -25 -2 0 -15 11 -28 25 -13 14 -21 25
-18 25 2 0 15 -11 28 -25z m-2377 0 c-3 -9 -8 -14 -10 -11 -3 3 -2 9 2 15 9
16 15 13 8 -4z m-22 -48 c-10 -9 -11 -8 -5 6 3 10 9 15 12 12 3 -3 0 -11 -7
-18z m149 -18 c0 -6 -4 -7 -10 -4 -5 3 -10 11 -10 16 0 6 5 7 10 4 6 -3 10
-11 10 -16z m-150 -3 c0 -3 -4 -8 -10 -11 -5 -3 -10 -1 -10 4 0 6 5 11 10 11
6 0 10 -2 10 -4z m130 -23 c0 -10 7 -30 14 -45 12 -23 12 -28 1 -28 -7 0 -18
14 -24 31 -14 40 -14 59 -1 59 6 0 10 -8 10 -17z m-188 -292 c20 -19 35 -38
32 -43 -3 -4 1 -8 9 -8 18 0 70 -55 65 -70 -3 -11 -153 134 -172 167 -9 16 -8
17 10 4 10 -8 36 -31 56 -50z m2939 11 c-9 -3 -9 -7 0 -18 9 -11 8 -14 -5 -14
-9 0 -16 6 -16 14 0 8 -8 17 -17 19 -14 4 -13 5 4 6 12 0 25 6 29 13 6 9 9 8
12 -2 3 -8 0 -16 -7 -18z m-46 -22 c-3 -5 -15 -10 -26 -10 -11 0 -17 5 -14 10
3 6 15 10 26 10 11 0 17 -4 14 -10z m-1805 -14 c0 -3 -4 -8 -10 -11 -5 -3 -10
-1 -10 4 0 6 5 11 10 11 6 0 10 -2 10 -4z m1920 -8 c0 -6 -3 -8 -7 -5 -3 4
-12 2 -20 -4 -8 -8 -13 -8 -13 -1 0 10 15 19 33 21 4 1 7 -4 7 -11z m-80 -18
c-14 -4 -36 -8 -50 -9 -20 -1 -22 1 -10 9 8 5 31 9 50 9 32 -1 33 -2 10 -9z
m-1706 -21 c27 -16 35 -26 32 -42 -3 -12 -7 -38 -11 -59 -3 -21 -13 -39 -23
-43 -14 -5 -15 -4 -4 6 17 18 15 39 -3 39 -8 0 -15 7 -15 16 0 13 -3 14 -14 5
-9 -7 -17 -8 -20 -2 -7 11 4 43 18 53 5 4 -2 10 -17 13 -26 7 -26 8 -10 21 24
18 26 17 67 -7z m-1634 1 c0 -5 -5 -10 -11 -10 -5 0 -7 5 -4 10 3 6 8 10 11
10 2 0 4 -4 4 -10z m1498 -18 c14 -9 6 -42 -10 -42 -6 0 -6 6 1 14 16 19 -5
32 -25 15 -12 -10 -13 -9 -8 5 7 17 22 20 42 8z m-915 -82 c19 -22 32 -40 29
-40 -13 1 -52 38 -52 49 0 6 -7 11 -15 11 -8 0 -15 5 -15 10 0 19 17 10 53
-30z m-406 3 c1 -17 15 -108 28 -185 9 -51 -9 -50 -59 1 -37 37 -39 42 -33 85
4 25 13 61 21 81 16 37 41 47 43 18z m3380 11 c-3 -3 -12 -4 -19 -1 -8 3 -5 6
6 6 11 1 17 -2 13 -5z m213 -39 c0 -8 -4 -17 -10 -20 -6 -4 -10 5 -10 20 0 15
4 24 10 20 6 -3 10 -12 10 -20z m-30 -13 c0 -10 -99 -36 -107 -28 -3 3 3 8 13
12 10 3 28 9 39 14 26 11 55 12 55 2z m-38 -204 c-7 -7 -12 -8 -12 -2 0 14 12
26 19 19 2 -3 -1 -11 -7 -17z m-2119 -41 c3 -8 1 -20 -4 -28 -6 -10 -9 -7 -9
14 0 29 5 35 13 14z m2107 3 c8 -5 11 -10 5 -10 -5 0 -17 5 -25 10 -8 5 -10
10 -5 10 6 0 17 -5 25 -10z"/>
<path d="M2140 480 c0 -5 5 -10 10 -10 6 0 10 5 10 10 0 6 -4 10 -10 10 -5 0
-10 -4 -10 -10z"/>
<path d="M2185 433 c0 -38 19 -41 21 -3 1 17 -3 30 -10 30 -6 0 -12 -12 -11
-27z"/>
<path d="M973 2318 c5 -15 31 -138 51 -248 8 -41 15 -62 15 -45 2 43 -52 305
-62 305 -5 0 -7 -6 -4 -12z"/>
<path d="M4697 2225 c10 -166 22 -224 18 -85 -2 69 -8 136 -13 150 -8 18 -9 0
-5 -65z"/>
<path d="M1704 2263 c-15 -11 -15 -13 -2 -13 22 0 48 11 48 19 0 12 -26 9 -46
-6z"/>
<path d="M1636 2261 c-3 -5 1 -12 10 -15 23 -9 34 -7 34 4 0 5 -7 6 -17 3 -11
-4 -14 -3 -9 5 4 7 3 12 -3 12 -5 0 -12 -4 -15 -9z"/>
<path d="M1590 2239 c0 -5 5 -7 10 -4 6 3 10 8 10 11 0 2 -4 4 -10 4 -5 0 -10
-5 -10 -11z"/>
<path d="M5459 2153 c-19 -21 -25 -31 -14 -23 36 27 59 50 54 55 -3 2 -21 -12
-40 -32z"/>
<path d="M1541 2154 c0 -11 3 -14 6 -6 3 7 2 16 -1 19 -3 4 -6 -2 -5 -13z"/>
<path d="M2784 2163 c10 -3 44 -14 74 -24 30 -11 52 -16 48 -12 -12 13 -100
43 -121 42 -19 -1 -19 -2 -1 -6z"/>
<path d="M1306 2045 c-3 -8 -1 -15 4 -15 6 0 10 7 10 15 0 8 -2 15 -4 15 -2 0
-6 -7 -10 -15z"/>
<path d="M1097 2013 c-4 -3 -7 -11 -7 -17 0 -6 5 -5 12 2 6 6 9 14 7 17 -3 3
-9 2 -12 -2z"/>
<path d="M1161 1962 c-7 -14 -6 -19 4 -19 7 0 13 9 12 19 -1 10 -2 18 -4 18
-1 0 -7 -8 -12 -18z"/>
<path d="M5063 1905 c-17 -7 -71 -16 -120 -20 -48 -4 -90 -9 -92 -11 -2 -2 29
-4 71 -4 74 0 172 21 183 40 8 13 -4 12 -42 -5z"/>
<path d="M920 1830 c0 -5 5 -10 11 -10 5 0 7 5 4 10 -3 6 -8 10 -11 10 -2 0
-4 -4 -4 -10z"/>
<path d="M984 1815 c-3 -8 -4 -20 -2 -27 3 -7 7 -1 10 15 6 29 1 36 -8 12z"/>
<path d="M940 1785 c0 -14 4 -25 9 -25 4 0 6 11 3 25 -2 14 -6 25 -8 25 -2 0
-4 -11 -4 -25z"/>
<path d="M1041 1774 c0 -11 3 -14 6 -6 3 7 2 16 -1 19 -3 4 -6 -2 -5 -13z"/>
<path d="M4197 1749 c7 -7 15 -10 18 -7 3 3 -2 9 -12 12 -14 6 -15 5 -6 -5z"/>
<path d="M4230 1727 c0 -3 12 -12 26 -22 15 -9 23 -12 20 -6 -7 11 -46 35 -46
28z"/>
<path d="M895 1710 c-3 -5 -1 -10 4 -10 6 0 11 5 11 10 0 6 -2 10 -4 10 -3 0
-8 -4 -11 -10z"/>
<path d="M940 1710 c0 -5 4 -10 9 -10 6 0 13 5 16 10 3 6 -1 10 -9 10 -9 0
-16 -4 -16 -10z"/>
<path d="M4297 1679 c6 -8 26 -23 45 -33 21 -13 29 -14 21 -5 -6 8 -26 23 -45
33 -21 13 -29 14 -21 5z"/>
<path d="M1397 1643 c-4 -3 -7 -11 -7 -17 0 -6 5 -5 12 2 6 6 9 14 7 17 -3 3
-9 2 -12 -2z"/>
<path d="M4380 1626 c0 -2 7 -7 16 -10 8 -3 12 -2 9 4 -6 10 -25 14 -25 6z"/>
<path d="M2 1570 c0 -14 2 -19 5 -12 2 6 2 18 0 25 -3 6 -5 1 -5 -13z"/>
<path d="M94 1485 c-18 -14 -18 -14 4 -8 12 3 22 9 22 14 0 12 -3 11 -26 -6z"/>
<path d="M4670 1492 c8 -6 42 -18 75 -27 33 -9 82 -22 110 -30 27 -7 52 -11
54 -9 7 6 2 8 -111 37 -59 15 -115 30 -125 33 -15 4 -15 4 -3 -4z"/>
<path d="M4944 1420 c16 -5 72 -16 125 -25 52 -9 102 -20 111 -25 9 -5 31 -5
50 0 l35 8 -30 1 c-16 1 -77 10 -135 20 -58 10 -123 22 -145 25 -35 5 -36 5
-11 -4z"/>
<path d="M1200 1382 c0 -15 32 -24 44 -12 7 7 7 10 -1 10 -6 0 -18 3 -27 6 -9
3 -16 2 -16 -4z"/>
<path d="M1155 1370 c-4 -6 -3 -10 2 -10 4 0 1 -5 -7 -10 -12 -8 -11 -10 6
-10 23 0 58 -44 51 -63 -3 -7 6 -13 19 -13 21 -2 24 2 24 36 0 37 -17 54 -46
49 -5 -1 -16 -1 -24 0 -12 1 -12 3 -2 10 11 7 11 9 -2 14 -8 3 -18 2 -21 -3z"/>
<path d="M3716 1371 c-3 -4 6 -6 19 -3 14 2 25 6 25 8 0 8 -39 4 -44 -5z"/>
<path d="M105 1327 c-10 -8 -15 -19 -11 -25 4 -8 13 -5 26 8 31 31 21 43 -15
17z"/>
<path d="M5308 1333 c7 -3 16 -2 19 1 4 3 -2 6 -13 5 -11 0 -14 -3 -6 -6z"/>
<path d="M170 1326 c0 -9 30 -14 35 -6 4 6 -3 10 -14 10 -12 0 -21 -2 -21 -4z"/>
<path d="M1160 1320 c0 -5 5 -10 10 -10 6 0 10 5 10 10 0 6 -4 10 -10 10 -5 0
-10 -4 -10 -10z"/>
<path d="M1336 1315 c-3 -8 -1 -15 4 -15 6 0 10 7 10 15 0 8 -2 15 -4 15 -2 0
-6 -7 -10 -15z"/>
<path d="M5418 1313 c7 -3 16 -2 19 1 4 3 -2 6 -13 5 -11 0 -14 -3 -6 -6z"/>
<path d="M235 1279 c-4 -6 -10 -22 -14 -37 -7 -24 -12 -27 -64 -29 -45 -2 -57
1 -57 13 0 14 -2 14 -15 1 -19 -19 -9 -81 11 -73 8 3 11 0 7 -10 -3 -7 -1 -14
5 -14 6 0 13 6 15 13 3 6 6 3 6 -9 1 -12 17 -38 36 -58 19 -21 35 -42 35 -48
0 -5 7 -8 15 -4 8 3 15 1 15 -3 0 -16 40 1 51 21 6 11 13 17 16 15 8 -9 -30
-67 -45 -67 -7 0 -10 -5 -6 -11 3 -6 16 -8 29 -5 13 3 27 0 34 -8 12 -14 57
-10 67 6 10 16 -5 22 -21 8 -11 -9 -19 -10 -26 -3 -15 15 -1 113 15 113 7 0
24 10 37 21 24 21 24 21 2 15 -26 -8 -27 -7 -13 29 7 17 7 24 0 20 -6 -3 -10
-12 -10 -20 0 -16 -49 -71 -60 -68 -4 1 -26 3 -49 4 -26 2 -41 8 -41 16 0 19
34 93 42 93 5 0 8 5 8 10 0 6 -8 10 -17 10 -15 0 -14 2 3 15 12 9 14 14 6 15
-9 0 -11 7 -7 20 7 21 0 27 -10 9z m-41 -92 c-6 -17 -44 -40 -52 -31 -4 4 -1
9 6 11 7 3 18 11 25 19 15 17 28 18 21 1z"/>
<path d="M3738 1268 c-9 -5 -6 -8 9 -8 12 0 24 4 27 8 7 11 -19 11 -36 0z"/>
<path d="M3795 1270 c3 -5 8 -10 11 -10 2 0 4 5 4 10 0 6 -5 10 -11 10 -5 0
-7 -4 -4 -10z"/>
<path d="M4012 1271 c-22 -6 -19 -10 45 -69 109 -100 117 -107 133 -107 8 0
15 -9 15 -20 0 -13 6 -19 18 -17 10 2 17 -3 17 -13 0 -15 11 -19 39 -15 13 1
13 -1 2 -14 -10 -12 -10 -16 -2 -16 7 0 9 -4 6 -10 -8 -13 8 -13 22 1 8 8 13
8 17 0 4 -6 0 -11 -8 -11 -9 0 -16 -3 -16 -8 0 -9 105 -92 117 -92 4 0 1 4 -7
10 -8 5 -12 12 -9 15 4 3 17 -3 30 -14 13 -11 18 -20 12 -21 -26 0 -11 -19 40
-50 44 -28 49 -29 32 -9 l-20 23 40 -24 c22 -14 60 -40 85 -59 25 -18 61 -41
80 -50 41 -19 53 -33 38 -42 -7 -5 2 -16 24 -29 35 -20 61 -54 35 -44 -7 2
-23 -6 -37 -18 -37 -34 -132 -76 -215 -93 -41 -8 -77 -15 -80 -15 -3 0 -5 -4
-5 -10 0 -5 9 -10 20 -10 27 0 164 47 220 75 25 12 55 26 67 29 12 4 50 25 83
48 34 22 64 38 67 35 3 -4 -11 -16 -31 -28 -20 -12 -35 -23 -33 -25 4 -5 96
39 97 46 0 5 -142 91 -163 99 -6 2 -20 12 -31 22 -11 11 -22 17 -24 14 -3 -2
6 -13 19 -24 18 -14 21 -23 13 -31 -15 -15 -57 5 -103 49 -20 18 -46 37 -58
42 -23 9 -32 29 -13 29 6 0 10 5 10 10 0 6 -7 10 -15 10 -8 0 -15 5 -15 11 0
6 -9 9 -20 6 -22 -6 -28 8 -7 16 7 4 3 8 -10 12 -13 4 -23 11 -23 16 0 5 -15
9 -32 9 -23 0 -29 3 -19 9 9 6 10 11 2 15 -6 4 -14 5 -19 2 -12 -7 -43 20 -40
35 2 8 -7 15 -19 17 -13 2 -47 27 -76 55 -166 161 -250 237 -260 236 -7 -1
-22 -4 -35 -8z m374 -336 c10 -8 15 -14 9 -14 -5 0 -19 6 -29 14 -11 8 -15 15
-10 15 6 0 19 -7 30 -15z"/>
<path d="M270 1200 c0 -13 11 -13 30 0 12 8 11 10 -7 10 -13 0 -23 -4 -23 -10z"/>
<path d="M862 1183 c1 -21 6 -33 15 -33 16 0 16 8 -2 40 l-14 25 1 -32z"/>
<path d="M922 1164 c-9 -10 -10 -19 -3 -32 9 -15 10 -15 11 0 0 9 4 18 10 20
5 2 6 8 2 14 -5 9 -11 8 -20 -2z"/>
<path d="M330 1145 c0 -8 2 -15 4 -15 2 0 6 7 10 15 3 8 1 15 -4 15 -6 0 -10
-7 -10 -15z"/>
<path d="M746 1145 c-10 -8 -16 -20 -13 -28 5 -14 -25 -47 -43 -47 -6 0 -10
-4 -10 -10 0 -5 4 -10 9 -10 6 0 9 -9 8 -19 0 -11 -5 -17 -9 -15 -5 3 -6 10
-3 15 4 5 -1 9 -10 9 -11 0 -15 -5 -12 -14 4 -11 1 -13 -11 -9 -9 3 -14 3 -10
-1 3 -4 23 -11 42 -16 38 -8 37 -9 41 45 1 14 7 19 23 18 23 -3 25 1 13 32 -5
12 -3 25 6 33 28 28 12 42 -21 17z"/>
<path d="M817 1141 c-3 -12 -1 -21 4 -21 6 0 9 -6 8 -12 -1 -7 1 -21 5 -30 9
-20 36 -12 35 11 0 10 -2 11 -6 4 -9 -23 -23 -14 -23 15 0 38 -15 60 -23 33z"/>
<path d="M890 1134 c0 -6 7 -19 16 -30 14 -18 14 -18 3 6 -14 31 -19 36 -19
24z"/>
<path d="M780 1110 c0 -11 4 -20 10 -20 5 0 7 -8 3 -17 -4 -14 -3 -15 6 -7 8
8 9 18 2 37 -12 32 -21 35 -21 7z"/>
<path d="M408 1103 c7 -3 16 -2 19 1 4 3 -2 6 -13 5 -11 0 -14 -3 -6 -6z"/>
<path d="M398 1083 c7 -3 16 -2 19 1 4 3 -2 6 -13 5 -11 0 -14 -3 -6 -6z"/>
<path d="M475 1049 c-4 -6 -13 -8 -20 -5 -13 5 -39 -40 -30 -53 2 -5 27 -11
55 -13 28 -3 53 -7 55 -10 3 -3 -1 -22 -9 -44 -10 -29 -19 -39 -34 -38 -12 0
-19 -3 -16 -8 3 -4 -8 -8 -24 -8 -23 0 -32 -6 -42 -29 -7 -17 -10 -36 -7 -43
3 -7 6 -3 6 8 1 12 7 24 15 27 11 4 13 -2 9 -26 l-5 -32 30 34 c16 19 28 41
25 48 -3 7 1 13 9 13 26 0 88 50 88 71 0 15 -5 19 -16 15 -10 -4 -15 0 -13 12
3 34 -1 43 -18 41 -10 -1 -31 1 -46 6 -27 7 -27 8 -11 26 9 11 14 19 11 19 -3
0 -9 -5 -12 -11z m24 -55 c2 -2 -10 -4 -27 -4 -17 0 -34 4 -37 10 -5 9 53 3
64 -6z m38 -10 c-3 -3 -12 -4 -19 -1 -8 3 -5 6 6 6 11 1 17 -2 13 -5z"/>
<path d="M955 989 c-4 -6 -5 -13 -2 -16 7 -7 27 6 27 18 0 12 -17 12 -25 -2z"/>
<path d="M391 973 c-10 -11 -11 -23 -4 -46 l10 -32 13 27 c17 36 3 75 -19 51z"/>
<path d="M285 960 c3 -5 8 -10 11 -10 2 0 4 5 4 10 0 6 -5 10 -11 10 -5 0 -7
-4 -4 -10z"/>
<path d="M633 922 c20 -21 37 -40 37 -43 0 -3 -11 -19 -25 -35 -28 -33 -26
-45 3 -16 39 39 41 52 14 93 -16 24 -33 39 -46 39 -17 0 -15 -5 17 -38z"/>
<path d="M955 900 c4 -6 11 -8 16 -5 14 9 11 15 -7 15 -8 0 -12 -5 -9 -10z"/>
<path d="M438 883 c7 -3 16 -2 19 1 4 3 -2 6 -13 5 -11 0 -14 -3 -6 -6z"/>
<path d="M907 873 c10 -29 24 -43 42 -42 11 0 12 2 3 6 -7 3 -17 16 -22 29
-11 27 -33 33 -23 7z"/>
<path d="M654 775 c-81 -88 -130 -153 -122 -161 2 -1 25 23 50 54 26 31 69 81
97 110 81 87 85 92 73 92 -6 0 -50 -43 -98 -95z"/>
<path d="M482 814 c-18 -19 -40 -51 -48 -71 -11 -26 -18 -33 -26 -25 -8 8 -8
15 1 26 7 8 9 21 5 28 -5 8 -10 3 -15 -16 -7 -23 -3 -35 16 -58 14 -16 28 -40
31 -54 6 -21 34 -35 34 -16 0 4 12 21 26 37 23 27 24 28 14 5 -9 -22 -9 -22 2
-6 7 10 26 32 41 48 16 17 26 33 23 36 -4 3 4 17 16 31 13 14 5 10 -16 -9 -24
-21 -37 -28 -33 -17 5 12 1 17 -14 17 -17 0 -19 4 -13 23 19 61 2 69 -44 21z"/>
<path d="M4874 567 c-44 -23 -89 -44 -100 -45 -10 -2 -21 -8 -24 -12 -3 -4
-39 -18 -80 -30 -67 -20 -111 -40 -84 -40 17 0 129 38 204 70 143 60 219 83
206 61 -3 -5 10 -12 29 -15 38 -7 46 -21 18 -30 -10 -3 -5 -4 10 -2 16 2 46
-5 67 -15 46 -23 63 -24 36 -4 -11 8 -29 15 -40 15 -21 1 -21 1 -1 16 20 16
20 16 -2 9 -20 -5 -59 7 -73 24 -8 10 -68 41 -77 40 -4 -1 -44 -20 -89 -42z"/>
<path d="M502 580 c-7 -11 -9 -20 -4 -20 4 0 13 9 20 20 7 11 9 20 4 20 -4 0
-13 -9 -20 -20z"/>
<path d="M485 518 c-20 -24 -39 -55 -42 -70 -3 -16 -10 -28 -15 -28 -5 0 -7
-4 -3 -10 10 -17 32 0 28 23 -2 14 10 40 36 75 49 63 47 68 -4 10z"/>
<path d="M463 528 c-15 -20 -25 -38 -20 -38 3 0 12 11 21 25 17 26 16 35 -1
13z"/>
<path d="M4976 511 c-3 -4 6 -6 19 -3 14 2 25 6 25 8 0 8 -39 4 -44 -5z"/>
<path d="M4908 493 c7 -3 16 -2 19 1 4 3 -2 6 -13 5 -11 0 -14 -3 -6 -6z"/>
<path d="M4868 483 c7 -3 16 -2 19 1 4 3 -2 6 -13 5 -11 0 -14 -3 -6 -6z"/>
<path d="M5190 475 c7 -8 22 -14 34 -14 20 2 20 2 -2 6 -12 2 -20 9 -17 14 4
5 -1 9 -11 9 -13 0 -14 -3 -4 -15z"/>
<path d="M5310 455 c-9 -11 -17 -12 -30 -5 -23 12 -30 13 -30 2 0 -5 11 -15
25 -22 35 -19 11 -32 -38 -20 -41 9 -52 -6 -11 -16 31 -8 23 -15 -38 -38 -27
-10 -48 -22 -48 -28 0 -6 8 -7 18 -3 9 4 26 10 37 13 11 2 27 11 36 19 15 12
23 11 65 -11 27 -14 84 -38 127 -55 l79 -30 -5 42 c-3 23 -10 43 -16 45 -8 3
-6 9 6 19 17 13 16 14 -7 8 -25 -5 -25 -5 -2 6 12 7 22 19 22 27 0 14 -1 14
-12 0 -20 -24 -49 -31 -46 -10 2 10 -2 16 -11 14 -9 -2 -11 3 -7 13 4 11 2 15
-6 12 -7 -2 -21 3 -31 11 -15 13 -22 14 -37 4 -16 -10 -18 -9 -14 3 8 19 -10
19 -26 0z"/>
<path d="M4166 445 c5 -11 10 -13 19 -5 9 8 15 8 20 0 3 -6 11 -8 16 -4 17 10
-1 24 -31 24 -22 0 -28 -4 -24 -15z"/>
<path d="M5120 450 c8 -5 20 -10 25 -10 6 0 3 5 -5 10 -8 5 -19 10 -25 10 -5
0 -3 -5 5 -10z"/>
<path d="M4555 430 c-3 -5 -1 -10 4 -10 6 0 11 5 11 10 0 6 -2 10 -4 10 -3 0
-8 -4 -11 -10z"/>
<path d="M5167 429 c7 -7 15 -10 18 -7 3 3 -2 9 -12 12 -14 6 -15 5 -6 -5z"/>
<path d="M4240 419 c0 -6 -7 -9 -15 -6 -8 4 -17 2 -20 -3 -3 -5 9 -9 28 -8 19
1 39 -2 45 -6 7 -4 12 -3 12 2 0 5 -11 14 -25 20 -18 8 -25 8 -25 1z"/>
<path d="M4535 380 c-3 -6 1 -7 9 -4 18 7 21 14 7 14 -6 0 -13 -4 -16 -10z"/>
<path d="M4807 366 c-4 -10 0 -12 14 -9 22 6 26 23 5 23 -8 0 -16 -6 -19 -14z"/>
<path d="M4395 330 c3 -5 10 -10 16 -10 5 0 9 5 9 10 0 6 -7 10 -16 10 -8 0
-12 -4 -9 -10z"/>
<path d="M5070 320 c0 -5 5 -10 10 -10 6 0 10 5 10 10 0 6 -4 10 -10 10 -5 0
-10 -4 -10 -10z"/>
<path d="M5125 296 c-16 -6 -25 -15 -20 -18 6 -3 26 2 45 13 39 20 21 25 -25
5z"/>
<path d="M4415 290 c3 -5 8 -10 11 -10 2 0 4 5 4 10 0 6 -5 10 -11 10 -5 0 -7
-4 -4 -10z"/>
<path d="M4948 293 c7 -3 16 -2 19 1 4 3 -2 6 -13 5 -11 0 -14 -3 -6 -6z"/>
<path d="M790 271 c0 -5 5 -13 10 -16 6 -3 10 -2 10 4 0 5 -4 13 -10 16 -5 3
-10 2 -10 -4z"/>
<path d="M825 270 c3 -5 8 -10 11 -10 2 0 4 5 4 10 0 6 -5 10 -11 10 -5 0 -7
-4 -4 -10z"/>
<path d="M4350 264 c-23 -13 -24 -14 -4 -14 12 0 27 7 34 15 15 18 4 18 -30
-1z"/>
<path d="M820 230 c0 -5 5 -10 10 -10 6 0 10 5 10 10 0 6 -4 10 -10 10 -5 0
-10 -4 -10 -10z"/>
<path d="M5150 230 c0 -5 4 -10 9 -10 6 0 13 5 16 10 3 6 -1 10 -9 10 -9 0
-16 -4 -16 -10z"/>
<path d="M4518 223 c7 -3 16 -2 19 1 4 3 -2 6 -13 5 -11 0 -14 -3 -6 -6z"/>
<path d="M850 202 c0 -12 19 -26 26 -19 2 2 -2 10 -11 17 -9 8 -15 8 -15 2z"/>
<path d="M885 93 c3 -16 10 -29 15 -31 5 -2 6 -10 3 -18 -3 -8 0 -14 6 -14 15
0 14 11 -4 54 -18 42 -30 48 -20 9z"/>
<path d="M1060 90 c0 -5 5 -10 11 -10 5 0 7 5 4 10 -3 6 -8 10 -11 10 -2 0 -4
-4 -4 -10z"/>
<path d="M928 3 c6 -2 18 -2 25 0 6 3 1 5 -13 5 -14 0 -19 -2 -12 -5z"/>
</g>
</svg>
